<svg width="367" height="203" viewBox="0 0 367 203" fill="none" xmlns="http://www.w3.org/2000/svg">
<g filter="url(#filter0_d_18_158)">
<rect x="10" y="6" width="347" height="183" rx="20" fill="white"/>
</g>
<rect x="31.5" y="62.5" width="305" height="109" rx="9.5" fill="white" stroke="black"/>
<path d="M160.188 149.091V160H158.537V150.742H158.473L155.863 152.447V150.87L158.585 149.091H160.188ZM166.937 160.181C166.096 160.178 165.376 159.956 164.78 159.515C164.183 159.075 163.727 158.434 163.411 157.592C163.095 156.751 162.937 155.737 162.937 154.551C162.937 153.368 163.095 152.358 163.411 151.52C163.73 150.682 164.189 150.043 164.785 149.602C165.385 149.162 166.103 148.942 166.937 148.942C167.772 148.942 168.487 149.164 169.084 149.608C169.68 150.048 170.137 150.687 170.453 151.525C170.772 152.36 170.932 153.368 170.932 154.551C170.932 155.74 170.774 156.756 170.458 157.598C170.142 158.436 169.686 159.077 169.089 159.521C168.493 159.961 167.775 160.181 166.937 160.181ZM166.937 158.759C167.676 158.759 168.253 158.398 168.668 157.678C169.087 156.957 169.297 155.914 169.297 154.551C169.297 153.645 169.201 152.88 169.009 152.255C168.821 151.626 168.549 151.151 168.194 150.827C167.843 150.501 167.424 150.337 166.937 150.337C166.202 150.337 165.625 150.7 165.206 151.424C164.787 152.148 164.576 153.191 164.572 154.551C164.572 155.46 164.666 156.229 164.854 156.857C165.046 157.482 165.318 157.956 165.669 158.279C166.021 158.599 166.444 158.759 166.937 158.759ZM176.62 160.181C175.778 160.178 175.059 159.956 174.462 159.515C173.866 159.075 173.41 158.434 173.093 157.592C172.777 156.751 172.619 155.737 172.619 154.551C172.619 153.368 172.777 152.358 173.093 151.52C173.413 150.682 173.871 150.043 174.468 149.602C175.068 149.162 175.785 148.942 176.62 148.942C177.454 148.942 178.17 149.164 178.766 149.608C179.363 150.048 179.819 150.687 180.135 151.525C180.455 152.36 180.615 153.368 180.615 154.551C180.615 155.74 180.457 156.756 180.141 157.598C179.825 158.436 179.368 159.077 178.772 159.521C178.175 159.961 177.458 160.181 176.62 160.181ZM176.62 158.759C177.358 158.759 177.935 158.398 178.351 157.678C178.77 156.957 178.979 155.914 178.979 154.551C178.979 153.645 178.884 152.88 178.692 152.255C178.504 151.626 178.232 151.151 177.877 150.827C177.525 150.501 177.106 150.337 176.62 150.337C175.885 150.337 175.308 150.7 174.889 151.424C174.47 152.148 174.258 153.191 174.255 154.551C174.255 155.46 174.349 156.229 174.537 156.857C174.729 157.482 175 157.956 175.352 158.279C175.704 158.599 176.126 158.759 176.62 158.759ZM182.654 160V149.091H184.3V154.3H184.433L189.008 149.091H191.08L186.681 154.002L191.096 160H189.115L185.589 155.126L184.3 156.607V160H182.654ZM199.903 160.165C199.136 160.165 198.466 159.989 197.895 159.638C197.323 159.286 196.879 158.794 196.563 158.162C196.247 157.53 196.089 156.792 196.089 155.946C196.089 155.098 196.247 154.355 196.563 153.72C196.879 153.084 197.323 152.591 197.895 152.239C198.466 151.887 199.136 151.712 199.903 151.712C200.67 151.712 201.339 151.887 201.911 152.239C202.483 152.591 202.927 153.084 203.243 153.72C203.559 154.355 203.717 155.098 203.717 155.946C203.717 156.792 203.559 157.53 203.243 158.162C202.927 158.794 202.483 159.286 201.911 159.638C201.339 159.989 200.67 160.165 199.903 160.165ZM199.908 158.828C200.405 158.828 200.817 158.697 201.144 158.434C201.471 158.171 201.712 157.821 201.868 157.385C202.028 156.948 202.108 156.467 202.108 155.941C202.108 155.419 202.028 154.94 201.868 154.503C201.712 154.062 201.471 153.709 201.144 153.443C200.817 153.176 200.405 153.043 199.908 153.043C199.407 153.043 198.992 153.176 198.662 153.443C198.335 153.709 198.092 154.062 197.932 154.503C197.776 154.94 197.698 155.419 197.698 155.941C197.698 156.467 197.776 156.948 197.932 157.385C198.092 157.821 198.335 158.171 198.662 158.434C198.992 158.697 199.407 158.828 199.908 158.828ZM205.494 160V151.818H207.034V153.118H207.119C207.268 152.678 207.531 152.331 207.907 152.079C208.287 151.824 208.717 151.696 209.197 151.696C209.296 151.696 209.413 151.699 209.548 151.706C209.687 151.713 209.795 151.722 209.873 151.733V153.256C209.809 153.239 209.695 153.219 209.532 153.198C209.369 153.173 209.205 153.161 209.042 153.161C208.666 153.161 208.33 153.24 208.035 153.4C207.744 153.556 207.513 153.775 207.343 154.055C207.172 154.332 207.087 154.648 207.087 155.004V160H205.494ZM213.559 160.181C213.041 160.181 212.572 160.085 212.153 159.893C211.734 159.698 211.402 159.416 211.157 159.047C210.915 158.677 210.795 158.224 210.795 157.688C210.795 157.227 210.883 156.847 211.061 156.548C211.238 156.25 211.478 156.014 211.78 155.84C212.082 155.666 212.419 155.534 212.792 155.446C213.165 155.357 213.545 155.289 213.932 155.243C214.422 155.186 214.82 155.14 215.125 155.105C215.431 155.066 215.653 155.004 215.791 154.918C215.93 154.833 215.999 154.695 215.999 154.503V154.466C215.999 154 215.867 153.64 215.605 153.384C215.345 153.129 214.958 153.001 214.443 153.001C213.907 153.001 213.485 153.12 213.176 153.358C212.87 153.592 212.659 153.853 212.542 154.141L211.045 153.8C211.222 153.303 211.482 152.901 211.823 152.596C212.167 152.287 212.563 152.063 213.01 151.925C213.458 151.783 213.928 151.712 214.422 151.712C214.749 151.712 215.095 151.751 215.461 151.829C215.83 151.903 216.175 152.042 216.494 152.244C216.817 152.447 217.082 152.736 217.288 153.113C217.494 153.485 217.597 153.97 217.597 154.567V160H216.041V158.881H215.977C215.874 159.087 215.72 159.29 215.514 159.489C215.308 159.687 215.044 159.853 214.72 159.984C214.397 160.115 214.01 160.181 213.559 160.181ZM213.905 158.903C214.346 158.903 214.722 158.816 215.035 158.642C215.351 158.468 215.59 158.24 215.754 157.96C215.921 157.676 216.004 157.372 216.004 157.049V155.994C215.947 156.051 215.837 156.104 215.674 156.154C215.514 156.2 215.331 156.241 215.125 156.277C214.919 156.309 214.719 156.339 214.523 156.367C214.328 156.392 214.165 156.413 214.033 156.431C213.724 156.47 213.442 156.536 213.186 156.628C212.934 156.721 212.732 156.854 212.579 157.028C212.43 157.198 212.355 157.425 212.355 157.71C212.355 158.104 212.501 158.402 212.792 158.604C213.083 158.803 213.454 158.903 213.905 158.903ZM221.311 155.142V160H219.718V151.818H221.247V153.15H221.348C221.536 152.717 221.831 152.369 222.232 152.106C222.637 151.843 223.147 151.712 223.761 151.712C224.319 151.712 224.807 151.829 225.226 152.063C225.645 152.294 225.97 152.638 226.201 153.097C226.432 153.555 226.547 154.121 226.547 154.796V160H224.954V154.988C224.954 154.395 224.8 153.931 224.491 153.597C224.182 153.26 223.758 153.091 223.218 153.091C222.848 153.091 222.52 153.171 222.232 153.331C221.948 153.491 221.723 153.725 221.556 154.034C221.392 154.339 221.311 154.709 221.311 155.142ZM232.113 163.239C231.464 163.239 230.904 163.153 230.435 162.983C229.97 162.813 229.59 162.587 229.296 162.306C229.001 162.026 228.781 161.719 228.635 161.385L230.004 160.82C230.1 160.977 230.228 161.142 230.388 161.316C230.551 161.493 230.771 161.644 231.048 161.768C231.329 161.893 231.689 161.955 232.129 161.955C232.733 161.955 233.232 161.808 233.626 161.513C234.02 161.222 234.217 160.756 234.217 160.117V158.509H234.116C234.02 158.683 233.882 158.876 233.701 159.089C233.523 159.302 233.278 159.487 232.966 159.643C232.653 159.799 232.247 159.877 231.746 159.877C231.1 159.877 230.517 159.727 229.999 159.425C229.484 159.119 229.075 158.67 228.774 158.077C228.475 157.48 228.326 156.747 228.326 155.877C228.326 155.007 228.473 154.261 228.768 153.64C229.066 153.018 229.475 152.543 229.993 152.212C230.512 151.879 231.1 151.712 231.756 151.712C232.264 151.712 232.674 151.797 232.987 151.967C233.299 152.134 233.543 152.33 233.717 152.553C233.894 152.777 234.031 152.974 234.127 153.145H234.244V151.818H235.805V160.181C235.805 160.884 235.641 161.461 235.315 161.912C234.988 162.363 234.546 162.697 233.988 162.914C233.434 163.13 232.809 163.239 232.113 163.239ZM232.097 158.556C232.555 158.556 232.943 158.45 233.259 158.237C233.578 158.02 233.82 157.711 233.983 157.31C234.15 156.905 234.233 156.42 234.233 155.856C234.233 155.305 234.152 154.821 233.988 154.402C233.825 153.983 233.585 153.656 233.269 153.422C232.953 153.184 232.563 153.065 232.097 153.065C231.618 153.065 231.218 153.189 230.899 153.438C230.579 153.683 230.338 154.016 230.174 154.439C230.015 154.862 229.935 155.334 229.935 155.856C229.935 156.392 230.016 156.863 230.18 157.267C230.343 157.672 230.585 157.988 230.904 158.216C231.227 158.443 231.625 158.556 232.097 158.556Z" fill="#7E7E7E"/>
<path d="M38.1733 31.4545H40.7869V41.6818C40.7822 42.6193 40.5833 43.4266 40.1903 44.1037C39.7973 44.776 39.2481 45.2945 38.5426 45.6591C37.8419 46.0189 37.0251 46.1989 36.0923 46.1989C35.2401 46.1989 34.473 46.0473 33.7912 45.7443C33.1141 45.4366 32.5767 44.982 32.179 44.3807C31.7813 43.7794 31.5824 43.0312 31.5824 42.1364H34.2031C34.2079 42.5294 34.2931 42.8679 34.4588 43.152C34.6293 43.4361 34.8636 43.6539 35.1619 43.8054C35.4602 43.9569 35.8035 44.0327 36.1918 44.0327C36.6132 44.0327 36.9706 43.9451 37.2642 43.7699C37.5578 43.59 37.7803 43.3248 37.9318 42.9744C38.0881 42.6241 38.1686 42.1932 38.1733 41.6818V31.4545ZM50.4851 41.4119V35.0909H53.0561V46H50.5632V44.0611H50.4496C50.2034 44.6719 49.7985 45.1714 49.2351 45.5597C48.6764 45.9479 47.9875 46.142 47.1683 46.142C46.4534 46.142 45.8213 45.9834 45.272 45.6662C44.7275 45.3442 44.3014 44.8778 43.9936 44.267C43.6858 43.6515 43.532 42.9081 43.532 42.0369V35.0909H46.103V41.6392C46.103 42.3305 46.2924 42.8797 46.6712 43.2869C47.05 43.6941 47.5471 43.8977 48.1626 43.8977C48.5414 43.8977 48.9084 43.8054 49.2635 43.6207C49.6186 43.4361 49.9098 43.1615 50.1371 42.7969C50.3691 42.4276 50.4851 41.9659 50.4851 41.4119ZM55.6999 46V35.0909H58.1573V36.9446H58.2852C58.5124 36.3196 58.8888 35.8319 59.4144 35.4815C59.94 35.1264 60.5674 34.9489 61.2965 34.9489C62.0352 34.9489 62.6578 35.1288 63.1644 35.4886C63.6758 35.8437 64.0356 36.3291 64.244 36.9446H64.3576C64.5991 36.3385 65.0063 35.8556 65.5792 35.4957C66.1568 35.1312 66.841 34.9489 67.6317 34.9489C68.6355 34.9489 69.4547 35.2661 70.0891 35.9006C70.7236 36.535 71.0408 37.4607 71.0408 38.6776V46H68.4627V39.0753C68.4627 38.3982 68.2828 37.9034 67.9229 37.5909C67.5631 37.2737 67.1228 37.1151 66.6019 37.1151C65.9817 37.1151 65.4963 37.3092 65.146 37.6974C64.8003 38.081 64.6275 38.5805 64.6275 39.196V46H62.1062V38.9688C62.1062 38.4053 61.9357 37.9555 61.5948 37.6193C61.2586 37.2831 60.8183 37.1151 60.2738 37.1151C59.9045 37.1151 59.5683 37.2098 59.2653 37.3991C58.9622 37.5838 58.7208 37.8466 58.5408 38.1875C58.3609 38.5237 58.271 38.9167 58.271 39.3665V46H55.6999ZM76.2202 31.4545V46H73.6491V31.4545H76.2202ZM82.0032 46.2202C81.3119 46.2202 80.6893 46.0971 80.1353 45.8509C79.5861 45.5999 79.1504 45.2306 78.8285 44.7429C78.5112 44.2552 78.3526 43.6539 78.3526 42.9389C78.3526 42.3234 78.4663 41.8144 78.6935 41.4119C78.9208 41.0095 79.2309 40.6875 79.6239 40.446C80.0169 40.2045 80.4596 40.0223 80.9521 39.8991C81.4492 39.7713 81.9629 39.679 82.4933 39.6222C83.1325 39.5559 83.6509 39.4967 84.0487 39.4446C84.4464 39.3878 84.7352 39.3026 84.9151 39.1889C85.0998 39.0705 85.1921 38.8883 85.1921 38.642V38.5994C85.1921 38.0644 85.0335 37.6501 84.7163 37.3565C84.399 37.063 83.9421 36.9162 83.3455 36.9162C82.7158 36.9162 82.2163 37.0535 81.8469 37.3281C81.4824 37.6027 81.2362 37.9271 81.1083 38.3011L78.7077 37.9602C78.8971 37.2973 79.2096 36.7434 79.6452 36.2983C80.0808 35.8485 80.6135 35.5123 81.2433 35.2898C81.873 35.0625 82.569 34.9489 83.3313 34.9489C83.8569 34.9489 84.3801 35.0104 84.9009 35.1335C85.4218 35.2566 85.8976 35.4602 86.3285 35.7443C86.7594 36.0237 87.105 36.4048 87.3654 36.8878C87.6306 37.3707 87.7631 37.9744 87.7631 38.6989V46H85.2915V44.5014H85.2063C85.0501 44.8045 84.8299 45.0885 84.5458 45.3537C84.2665 45.6141 83.9137 45.8248 83.4876 45.9858C83.0662 46.142 82.5714 46.2202 82.0032 46.2202ZM82.6708 44.331C83.1869 44.331 83.6344 44.2292 84.0131 44.0256C84.3919 43.8172 84.6831 43.5426 84.8867 43.2017C85.0951 42.8608 85.1992 42.4891 85.1992 42.0866V40.8011C85.1187 40.8674 84.9814 40.929 84.7873 40.9858C84.5979 41.0426 84.3848 41.0923 84.1481 41.1349C83.9113 41.1776 83.677 41.2154 83.445 41.2486C83.2129 41.2817 83.0117 41.3101 82.8413 41.3338C82.4577 41.3859 82.1145 41.4711 81.8114 41.5895C81.5084 41.7079 81.2693 41.8736 81.0941 42.0866C80.9189 42.295 80.8313 42.5649 80.8313 42.8963C80.8313 43.3698 81.0041 43.7273 81.3498 43.9688C81.6954 44.2102 82.1358 44.331 82.6708 44.331ZM92.9194 39.608V46H90.3484V31.4545H92.8626V36.9446H92.9904C93.2461 36.3291 93.6415 35.8437 94.1765 35.4886C94.7163 35.1288 95.4028 34.9489 96.2362 34.9489C96.9937 34.9489 97.6542 35.1075 98.2177 35.4247C98.7811 35.742 99.2167 36.206 99.5245 36.8168C99.837 37.4276 99.9933 38.1733 99.9933 39.054V46H97.4222V39.4517C97.4222 38.7178 97.2328 38.1473 96.854 37.7401C96.48 37.3281 95.9544 37.1222 95.2773 37.1222C94.8228 37.1222 94.4156 37.2216 94.0558 37.4205C93.7006 37.6146 93.4213 37.8963 93.2177 38.2656C93.0188 38.6349 92.9194 39.0824 92.9194 39.608ZM110.714 46.2202C110.023 46.2202 109.4 46.0971 108.846 45.8509C108.297 45.5999 107.861 45.2306 107.539 44.7429C107.222 44.2552 107.064 43.6539 107.064 42.9389C107.064 42.3234 107.177 41.8144 107.404 41.4119C107.632 41.0095 107.942 40.6875 108.335 40.446C108.728 40.2045 109.171 40.0223 109.663 39.8991C110.16 39.7713 110.674 39.679 111.204 39.6222C111.843 39.5559 112.362 39.4967 112.76 39.4446C113.157 39.3878 113.446 39.3026 113.626 39.1889C113.811 39.0705 113.903 38.8883 113.903 38.642V38.5994C113.903 38.0644 113.744 37.6501 113.427 37.3565C113.11 37.063 112.653 36.9162 112.056 36.9162C111.427 36.9162 110.927 37.0535 110.558 37.3281C110.193 37.6027 109.947 37.9271 109.819 38.3011L107.419 37.9602C107.608 37.2973 107.921 36.7434 108.356 36.2983C108.792 35.8485 109.324 35.5123 109.954 35.2898C110.584 35.0625 111.28 34.9489 112.042 34.9489C112.568 34.9489 113.091 35.0104 113.612 35.1335C114.133 35.2566 114.609 35.4602 115.039 35.7443C115.47 36.0237 115.816 36.4048 116.076 36.8878C116.342 37.3707 116.474 37.9744 116.474 38.6989V46H114.002V44.5014H113.917C113.761 44.8045 113.541 45.0885 113.257 45.3537C112.977 45.6141 112.625 45.8248 112.199 45.9858C111.777 46.142 111.282 46.2202 110.714 46.2202ZM111.382 44.331C111.898 44.331 112.345 44.2292 112.724 44.0256C113.103 43.8172 113.394 43.5426 113.598 43.2017C113.806 42.8608 113.91 42.4891 113.91 42.0866V40.8011C113.83 40.8674 113.692 40.929 113.498 40.9858C113.309 41.0426 113.096 41.0923 112.859 41.1349C112.622 41.1776 112.388 41.2154 112.156 41.2486C111.924 41.2817 111.723 41.3101 111.552 41.3338C111.169 41.3859 110.825 41.4711 110.522 41.5895C110.219 41.7079 109.98 41.8736 109.805 42.0866C109.63 42.295 109.542 42.5649 109.542 42.8963C109.542 43.3698 109.715 43.7273 110.061 43.9688C110.406 44.2102 110.847 44.331 111.382 44.331ZM121.63 31.4545V46H119.059V31.4545H121.63ZM131.227 41.4119V35.0909H133.798V46H131.305V44.0611H131.192C130.946 44.6719 130.541 45.1714 129.977 45.5597C129.419 45.9479 128.73 46.142 127.911 46.142C127.196 46.142 126.563 45.9834 126.014 45.6662C125.47 45.3442 125.044 44.8778 124.736 44.267C124.428 43.6515 124.274 42.9081 124.274 42.0369V35.0909H126.845V41.6392C126.845 42.3305 127.035 42.8797 127.413 43.2869C127.792 43.6941 128.289 43.8977 128.905 43.8977C129.284 43.8977 129.651 43.8054 130.006 43.6207C130.361 43.4361 130.652 43.1615 130.879 42.7969C131.111 42.4276 131.227 41.9659 131.227 41.4119ZM136.442 46V35.0909H138.9V36.9446H139.027C139.255 36.3196 139.631 35.8319 140.157 35.4815C140.682 35.1264 141.31 34.9489 142.039 34.9489C142.777 34.9489 143.4 35.1288 143.907 35.4886C144.418 35.8437 144.778 36.3291 144.986 36.9446H145.1C145.341 36.3385 145.748 35.8556 146.321 35.4957C146.899 35.1312 147.583 34.9489 148.374 34.9489C149.378 34.9489 150.197 35.2661 150.831 35.9006C151.466 36.535 151.783 37.4607 151.783 38.6776V46H149.205V39.0753C149.205 38.3982 149.025 37.9034 148.665 37.5909C148.305 37.2737 147.865 37.1151 147.344 37.1151C146.724 37.1151 146.239 37.3092 145.888 37.6974C145.542 38.081 145.37 38.5805 145.37 39.196V46H142.848V38.9688C142.848 38.4053 142.678 37.9555 142.337 37.6193C142.001 37.2831 141.56 37.1151 141.016 37.1151C140.647 37.1151 140.31 37.2098 140.007 37.3991C139.704 37.5838 139.463 37.8466 139.283 38.1875C139.103 38.5237 139.013 38.9167 139.013 39.3665V46H136.442ZM156.962 39.608V46H154.391V35.0909H156.849V36.9446H156.977C157.228 36.3338 157.628 35.8485 158.177 35.4886C158.731 35.1288 159.415 34.9489 160.229 34.9489C160.982 34.9489 161.638 35.1098 162.197 35.4318C162.76 35.7538 163.196 36.2202 163.504 36.831C163.816 37.4418 163.97 38.1828 163.965 39.054V46H161.394V39.4517C161.394 38.7225 161.205 38.152 160.826 37.7401C160.452 37.3281 159.933 37.1222 159.271 37.1222C158.821 37.1222 158.421 37.2216 158.07 37.4205C157.725 37.6146 157.452 37.8963 157.254 38.2656C157.059 38.6349 156.962 39.0824 156.962 39.608ZM166.579 46V35.0909H169.15V46H166.579ZM167.871 33.5426C167.464 33.5426 167.114 33.4077 166.82 33.1378C166.527 32.8632 166.38 32.5341 166.38 32.1506C166.38 31.7623 166.527 31.4332 166.82 31.1634C167.114 30.8887 167.464 30.7514 167.871 30.7514C168.283 30.7514 168.634 30.8887 168.923 31.1634C169.216 31.4332 169.363 31.7623 169.363 32.1506C169.363 32.5341 169.216 32.8632 168.923 33.1378C168.634 33.4077 168.283 33.5426 167.871 33.5426ZM185.377 37.9744L183.033 38.2301C182.967 37.9934 182.851 37.7708 182.685 37.5625C182.524 37.3542 182.306 37.1861 182.032 37.0582C181.757 36.9304 181.421 36.8665 181.023 36.8665C180.488 36.8665 180.038 36.9825 179.674 37.2145C179.314 37.4465 179.136 37.7472 179.141 38.1165C179.136 38.4337 179.252 38.6918 179.489 38.8906C179.73 39.0895 180.128 39.2528 180.682 39.3807L182.543 39.7784C183.575 40.0009 184.342 40.3537 184.844 40.8366C185.351 41.3196 185.606 41.9517 185.611 42.733C185.606 43.4195 185.405 44.0256 185.007 44.5511C184.614 45.072 184.068 45.4792 183.367 45.7727C182.666 46.0663 181.861 46.2131 180.952 46.2131C179.617 46.2131 178.542 45.9337 177.728 45.375C176.913 44.8116 176.428 44.0279 176.272 43.0241L178.779 42.7827C178.892 43.2751 179.134 43.6468 179.503 43.8977C179.873 44.1487 180.353 44.2741 180.945 44.2741C181.556 44.2741 182.046 44.1487 182.415 43.8977C182.789 43.6468 182.976 43.3366 182.976 42.9673C182.976 42.6548 182.855 42.3968 182.614 42.1932C182.377 41.9896 182.008 41.8333 181.506 41.7244L179.645 41.3338C178.599 41.116 177.825 40.7491 177.323 40.233C176.821 39.7121 176.572 39.054 176.577 38.2585C176.572 37.5862 176.755 37.0038 177.124 36.5114C177.498 36.0142 178.016 35.6307 178.679 35.3608C179.347 35.0862 180.116 34.9489 180.988 34.9489C182.266 34.9489 183.272 35.2211 184.006 35.7656C184.745 36.3101 185.202 37.0464 185.377 37.9744ZM187.731 46V35.0909H190.302V46H187.731ZM189.024 33.5426C188.617 33.5426 188.266 33.4077 187.973 33.1378C187.679 32.8632 187.532 32.5341 187.532 32.1506C187.532 31.7623 187.679 31.4332 187.973 31.1634C188.266 30.8887 188.617 30.7514 189.024 30.7514C189.436 30.7514 189.786 30.8887 190.075 31.1634C190.368 31.4332 190.515 31.7623 190.515 32.1506C190.515 32.5341 190.368 32.8632 190.075 33.1378C189.786 33.4077 189.436 33.5426 189.024 33.5426ZM201.568 37.9744L199.224 38.2301C199.158 37.9934 199.042 37.7708 198.876 37.5625C198.715 37.3542 198.498 37.1861 198.223 37.0582C197.948 36.9304 197.612 36.8665 197.214 36.8665C196.679 36.8665 196.23 36.9825 195.865 37.2145C195.505 37.4465 195.328 37.7472 195.332 38.1165C195.328 38.4337 195.444 38.6918 195.68 38.8906C195.922 39.0895 196.32 39.2528 196.874 39.3807L198.734 39.7784C199.767 40.0009 200.534 40.3537 201.036 40.8366C201.542 41.3196 201.798 41.9517 201.803 42.733C201.798 43.4195 201.597 44.0256 201.199 44.5511C200.806 45.072 200.259 45.4792 199.558 45.7727C198.857 46.0663 198.053 46.2131 197.143 46.2131C195.808 46.2131 194.733 45.9337 193.919 45.375C193.105 44.8116 192.619 44.0279 192.463 43.0241L194.97 42.7827C195.084 43.2751 195.325 43.6468 195.695 43.8977C196.064 44.1487 196.545 44.2741 197.136 44.2741C197.747 44.2741 198.237 44.1487 198.607 43.8977C198.981 43.6468 199.168 43.3366 199.168 42.9673C199.168 42.6548 199.047 42.3968 198.805 42.1932C198.569 41.9896 198.199 41.8333 197.697 41.7244L195.837 41.3338C194.79 41.116 194.016 40.7491 193.514 40.233C193.012 39.7121 192.764 39.054 192.768 38.2585C192.764 37.5862 192.946 37.0038 193.315 36.5114C193.689 36.0142 194.208 35.6307 194.871 35.3608C195.538 35.0862 196.308 34.9489 197.179 34.9489C198.457 34.9489 199.464 35.2211 200.197 35.7656C200.936 36.3101 201.393 37.0464 201.568 37.9744ZM206.174 46L203.092 35.0909H205.712L207.63 42.7614H207.729L209.69 35.0909H212.282L214.242 42.7188H214.349L216.238 35.0909H218.866L215.776 46H213.099L211.053 38.6278H210.904L208.859 46H206.174ZM223.8 46.2202C223.109 46.2202 222.486 46.0971 221.932 45.8509C221.383 45.5999 220.947 45.2306 220.625 44.7429C220.308 44.2552 220.15 43.6539 220.15 42.9389C220.15 42.3234 220.263 41.8144 220.49 41.4119C220.718 41.0095 221.028 40.6875 221.421 40.446C221.814 40.2045 222.257 40.0223 222.749 39.8991C223.246 39.7713 223.76 39.679 224.29 39.6222C224.929 39.5559 225.448 39.4967 225.846 39.4446C226.243 39.3878 226.532 39.3026 226.712 39.1889C226.897 39.0705 226.989 38.8883 226.989 38.642V38.5994C226.989 38.0644 226.83 37.6501 226.513 37.3565C226.196 37.063 225.739 36.9162 225.142 36.9162C224.513 36.9162 224.013 37.0535 223.644 37.3281C223.279 37.6027 223.033 37.9271 222.905 38.3011L220.505 37.9602C220.694 37.2973 221.007 36.7434 221.442 36.2983C221.878 35.8485 222.41 35.5123 223.04 35.2898C223.67 35.0625 224.366 34.9489 225.128 34.9489C225.654 34.9489 226.177 35.0104 226.698 35.1335C227.219 35.2566 227.694 35.4602 228.125 35.7443C228.556 36.0237 228.902 36.4048 229.162 36.8878C229.427 37.3707 229.56 37.9744 229.56 38.6989V46H227.088V44.5014H227.003C226.847 44.8045 226.627 45.0885 226.343 45.3537C226.063 45.6141 225.711 45.8248 225.284 45.9858C224.863 46.142 224.368 46.2202 223.8 46.2202ZM224.468 44.331C224.984 44.331 225.431 44.2292 225.81 44.0256C226.189 43.8172 226.48 43.5426 226.684 43.2017C226.892 42.8608 226.996 42.4891 226.996 42.0866V40.8011C226.916 40.8674 226.778 40.929 226.584 40.9858C226.395 41.0426 226.182 41.0923 225.945 41.1349C225.708 41.1776 225.474 41.2154 225.242 41.2486C225.01 41.2817 224.809 41.3101 224.638 41.3338C224.255 41.3859 223.911 41.4711 223.608 41.5895C223.305 41.7079 223.066 41.8736 222.891 42.0866C222.716 42.295 222.628 42.5649 222.628 42.8963C222.628 43.3698 222.801 43.7273 223.147 43.9688C223.492 44.2102 223.933 44.331 224.468 44.331ZM242.994 31.4545V46H240.359V34.0185H240.274L236.872 36.1918V33.777L240.487 31.4545H242.994ZM252.064 46.277C250.894 46.277 249.89 45.9811 249.052 45.3892C248.219 44.7926 247.577 43.9332 247.127 42.8111C246.682 41.6842 246.46 40.3277 246.46 38.7415C246.465 37.1553 246.69 35.8059 247.135 34.6932C247.584 33.5758 248.226 32.7235 249.059 32.1364C249.897 31.5492 250.899 31.2557 252.064 31.2557C253.228 31.2557 254.23 31.5492 255.068 32.1364C255.906 32.7235 256.547 33.5758 256.993 34.6932C257.442 35.8106 257.667 37.16 257.667 38.7415C257.667 40.3324 257.442 41.6913 256.993 42.8182C256.547 43.9403 255.906 44.7973 255.068 45.3892C254.234 45.9811 253.233 46.277 252.064 46.277ZM252.064 44.054C252.973 44.054 253.69 43.6065 254.216 42.7116C254.746 41.812 255.011 40.4886 255.011 38.7415C255.011 37.5862 254.89 36.6155 254.649 35.8295C254.407 35.0436 254.066 34.4517 253.626 34.054C253.186 33.6515 252.665 33.4503 252.064 33.4503C251.159 33.4503 250.444 33.9001 249.919 34.7997C249.393 35.6946 249.128 37.0085 249.123 38.7415C249.118 39.9015 249.234 40.8769 249.471 41.6676C249.713 42.4583 250.054 43.0549 250.494 43.4574C250.934 43.8551 251.458 44.054 252.064 44.054ZM265.403 46.277C264.234 46.277 263.23 45.9811 262.392 45.3892C261.559 44.7926 260.917 43.9332 260.467 42.8111C260.022 41.6842 259.8 40.3277 259.8 38.7415C259.804 37.1553 260.029 35.8059 260.474 34.6932C260.924 33.5758 261.566 32.7235 262.399 32.1364C263.237 31.5492 264.239 31.2557 265.403 31.2557C266.568 31.2557 267.57 31.5492 268.408 32.1364C269.246 32.7235 269.887 33.5758 270.332 34.6932C270.782 35.8106 271.007 37.16 271.007 38.7415C271.007 40.3324 270.782 41.6913 270.332 42.8182C269.887 43.9403 269.246 44.7973 268.408 45.3892C267.574 45.9811 266.573 46.277 265.403 46.277ZM265.403 44.054C266.313 44.054 267.03 43.6065 267.555 42.7116C268.086 41.812 268.351 40.4886 268.351 38.7415C268.351 37.5862 268.23 36.6155 267.989 35.8295C267.747 35.0436 267.406 34.4517 266.966 34.054C266.526 33.6515 266.005 33.4503 265.403 33.4503C264.499 33.4503 263.784 33.9001 263.259 34.7997C262.733 35.6946 262.468 37.0085 262.463 38.7415C262.458 39.9015 262.574 40.8769 262.811 41.6676C263.053 42.4583 263.393 43.0549 263.834 43.4574C264.274 43.8551 264.797 44.054 265.403 44.054ZM275.739 42.5767L275.732 39.473H276.144L280.064 35.0909H283.069L278.246 40.4602H277.713L275.739 42.5767ZM273.395 46V31.4545H275.966V46H273.395ZM280.242 46L276.691 41.0355L278.424 39.2244L283.317 46H280.242Z" fill="black"/>
<path d="M53.8267 95H51.4972L56.7315 80.4545H59.267L64.5014 95H62.1719L58.0597 83.0966H57.946L53.8267 95ZM54.2173 89.304H61.7741V91.1506H54.2173V89.304ZM68.555 80.4545V95H66.4315V80.4545H68.555ZM78.3224 90.4759V84.0909H80.4531V95H78.3651V93.1108H78.2514C78.0005 93.6932 77.598 94.1785 77.044 94.5668C76.4948 94.9503 75.8106 95.142 74.9915 95.142C74.2907 95.142 73.6705 94.9882 73.1307 94.6804C72.5956 94.3679 72.1742 93.9062 71.8665 93.2955C71.5634 92.6847 71.4119 91.9295 71.4119 91.0298V84.0909H73.5355V90.7741C73.5355 91.5175 73.7415 92.1094 74.1534 92.5497C74.5653 92.9901 75.1004 93.2102 75.7585 93.2102C76.1563 93.2102 76.5516 93.1108 76.9446 92.9119C77.3423 92.7131 77.6714 92.4124 77.9318 92.0099C78.197 91.6075 78.3272 91.0961 78.3224 90.4759ZM83.3065 95V84.0909H85.3448V85.8665H85.4798C85.707 85.2652 86.0787 84.7964 86.5948 84.4602C87.1109 84.1193 87.7288 83.9489 88.4485 83.9489C89.1777 83.9489 89.7885 84.1193 90.2809 84.4602C90.7781 84.8011 91.145 85.2699 91.3817 85.8665H91.4954C91.7558 85.2841 92.1701 84.8201 92.7383 84.4744C93.3065 84.1241 93.9835 83.9489 94.7695 83.9489C95.7591 83.9489 96.5664 84.259 97.1914 84.8793C97.8211 85.4995 98.136 86.4347 98.136 87.6847V95H96.0124V87.8835C96.0124 87.1449 95.8112 86.6098 95.4087 86.2784C95.0063 85.947 94.5257 85.7812 93.967 85.7812C93.2757 85.7812 92.7383 85.9943 92.3548 86.4205C91.9712 86.8419 91.7795 87.384 91.7795 88.0469V95H89.663V87.7486C89.663 87.1567 89.4783 86.6809 89.109 86.321C88.7397 85.9612 88.2591 85.7812 87.6673 85.7812C87.2648 85.7812 86.8931 85.8878 86.5522 86.1009C86.216 86.3092 85.9438 86.6004 85.7354 86.9744C85.5318 87.3485 85.43 87.7817 85.43 88.2741V95H83.3065ZM103.106 88.5227V95H100.982V84.0909H103.021V85.8665H103.156C103.406 85.2888 103.799 84.8248 104.335 84.4744C104.874 84.1241 105.554 83.9489 106.373 83.9489C107.116 83.9489 107.767 84.1051 108.326 84.4176C108.885 84.7254 109.318 85.1847 109.626 85.7955C109.933 86.4062 110.087 87.1615 110.087 88.0611V95H107.964V88.3168C107.964 87.526 107.758 86.9081 107.346 86.4631C106.934 86.0133 106.368 85.7884 105.648 85.7884C105.156 85.7884 104.718 85.8949 104.335 86.108C103.956 86.321 103.655 86.6335 103.433 87.0455C103.215 87.4527 103.106 87.9451 103.106 88.5227ZM112.935 95V84.0909H115.059V95H112.935ZM114.008 82.4077C113.638 82.4077 113.321 82.2846 113.056 82.0384C112.796 81.7874 112.665 81.4891 112.665 81.1435C112.665 80.7931 112.796 80.4948 113.056 80.2486C113.321 79.9976 113.638 79.8722 114.008 79.8722C114.377 79.8722 114.692 79.9976 114.952 80.2486C115.218 80.4948 115.35 80.7931 115.35 81.1435C115.35 81.4891 115.218 81.7874 114.952 82.0384C114.692 82.2846 114.377 82.4077 114.008 82.4077ZM124.551 99.0909C124.234 99.0909 123.945 99.0649 123.685 99.0128C123.424 98.9654 123.23 98.9134 123.102 98.8565L123.614 97.1165C124.002 97.2206 124.348 97.2656 124.651 97.2514C124.954 97.2372 125.221 97.1236 125.453 96.9105C125.69 96.6974 125.898 96.3494 126.078 95.8665L126.341 95.142L122.349 84.0909H124.622L127.385 92.5568H127.499L130.261 84.0909H132.541L128.045 96.456C127.837 97.0241 127.572 97.5047 127.25 97.8977C126.928 98.2955 126.545 98.5938 126.099 98.7926C125.654 98.9915 125.138 99.0909 124.551 99.0909ZM137.399 95.2415C136.708 95.2415 136.083 95.1136 135.524 94.858C134.965 94.5975 134.523 94.2211 134.196 93.7287C133.874 93.2363 133.713 92.6326 133.713 91.9176C133.713 91.3021 133.831 90.7955 134.068 90.3977C134.305 90 134.625 89.6851 135.027 89.4531C135.429 89.2211 135.879 89.0459 136.376 88.9276C136.874 88.8092 137.38 88.7192 137.896 88.6577C138.55 88.5819 139.08 88.5204 139.487 88.473C139.894 88.4209 140.19 88.3381 140.375 88.2244C140.56 88.1108 140.652 87.9261 140.652 87.6705V87.6207C140.652 87.0005 140.477 86.5199 140.126 86.179C139.781 85.8381 139.265 85.6676 138.578 85.6676C137.863 85.6676 137.3 85.8262 136.888 86.1435C136.481 86.456 136.199 86.804 136.043 87.1875L134.047 86.733C134.284 86.0701 134.629 85.535 135.084 85.1278C135.543 84.7159 136.071 84.4176 136.668 84.233C137.264 84.0436 137.892 83.9489 138.55 83.9489C138.985 83.9489 139.447 84.0009 139.935 84.1051C140.427 84.2045 140.886 84.3892 141.312 84.6591C141.743 84.929 142.096 85.3149 142.371 85.8168C142.645 86.3139 142.783 86.9602 142.783 87.7557V95H140.709V93.5085H140.624C140.486 93.7831 140.28 94.053 140.006 94.3182C139.731 94.5833 139.378 94.8035 138.947 94.9787C138.517 95.1539 138 95.2415 137.399 95.2415ZM137.861 93.5369C138.448 93.5369 138.95 93.4209 139.366 93.1889C139.788 92.9569 140.107 92.6539 140.325 92.2798C140.548 91.901 140.659 91.4962 140.659 91.0653V89.6591C140.583 89.7348 140.437 89.8059 140.219 89.8722C140.006 89.9337 139.762 89.9882 139.487 90.0355C139.213 90.0781 138.945 90.1184 138.685 90.1562C138.424 90.1894 138.206 90.2178 138.031 90.2415C137.619 90.2936 137.243 90.3812 136.902 90.5043C136.566 90.6274 136.296 90.8049 136.092 91.0369C135.893 91.2642 135.794 91.5672 135.794 91.946C135.794 92.4716 135.988 92.8693 136.376 93.1392C136.765 93.4044 137.259 93.5369 137.861 93.5369ZM147.735 88.5227V95H145.611V84.0909H147.65V85.8665H147.784C148.035 85.2888 148.428 84.8248 148.963 84.4744C149.503 84.1241 150.183 83.9489 151.002 83.9489C151.745 83.9489 152.396 84.1051 152.955 84.4176C153.514 84.7254 153.947 85.1847 154.255 85.7955C154.562 86.4062 154.716 87.1615 154.716 88.0611V95H152.593V88.3168C152.593 87.526 152.387 86.9081 151.975 86.4631C151.563 86.0133 150.997 85.7884 150.277 85.7884C149.785 85.7884 149.347 85.8949 148.963 86.108C148.585 86.321 148.284 86.6335 148.061 87.0455C147.844 87.4527 147.735 87.9451 147.735 88.5227ZM162.138 99.3182C161.272 99.3182 160.526 99.2045 159.901 98.9773C159.281 98.75 158.774 98.4493 158.381 98.0753C157.988 97.7012 157.694 97.2917 157.5 96.8466L159.326 96.0938C159.453 96.3021 159.624 96.5223 159.837 96.7543C160.055 96.991 160.348 97.1922 160.718 97.358C161.092 97.5237 161.572 97.6065 162.159 97.6065C162.964 97.6065 163.63 97.41 164.155 97.017C164.681 96.6288 164.944 96.0085 164.944 95.1562V93.0114H164.809C164.681 93.2434 164.496 93.5014 164.255 93.7855C164.018 94.0696 163.691 94.3158 163.275 94.5241C162.858 94.7325 162.316 94.8366 161.648 94.8366C160.786 94.8366 160.01 94.6354 159.319 94.233C158.632 93.8258 158.087 93.2268 157.685 92.4361C157.287 91.6406 157.088 90.6629 157.088 89.5028C157.088 88.3428 157.285 87.3485 157.678 86.5199C158.076 85.6913 158.62 85.0568 159.311 84.6165C160.003 84.1714 160.786 83.9489 161.662 83.9489C162.339 83.9489 162.886 84.0625 163.303 84.2898C163.72 84.5123 164.044 84.7727 164.276 85.071C164.513 85.3693 164.695 85.6321 164.823 85.8594H164.979V84.0909H167.06V95.2415C167.06 96.179 166.842 96.9484 166.407 97.5497C165.971 98.151 165.382 98.5961 164.638 98.8849C163.9 99.1738 163.066 99.3182 162.138 99.3182ZM162.117 93.0753C162.728 93.0753 163.244 92.9332 163.665 92.6491C164.091 92.3603 164.413 91.9484 164.631 91.4134C164.854 90.8736 164.965 90.2273 164.965 89.4744C164.965 88.7405 164.856 88.0942 164.638 87.5355C164.42 86.9768 164.101 86.5412 163.679 86.2287C163.258 85.9115 162.737 85.7528 162.117 85.7528C161.478 85.7528 160.945 85.9186 160.519 86.25C160.093 86.5767 159.771 87.0218 159.553 87.5852C159.34 88.1487 159.233 88.7784 159.233 89.4744C159.233 90.1894 159.342 90.8168 159.56 91.3565C159.778 91.8963 160.1 92.3177 160.526 92.6207C160.957 92.9238 161.487 93.0753 162.117 93.0753ZM175.371 95V80.4545H177.495V85.8594H177.623C177.746 85.6321 177.924 85.3693 178.156 85.071C178.388 84.7727 178.71 84.5123 179.121 84.2898C179.533 84.0625 180.078 83.9489 180.755 83.9489C181.636 83.9489 182.422 84.1714 183.113 84.6165C183.804 85.0616 184.346 85.7031 184.739 86.5412C185.137 87.3793 185.336 88.3878 185.336 89.5668C185.336 90.7457 185.139 91.7566 184.746 92.5994C184.353 93.4375 183.814 94.0838 183.127 94.5384C182.441 94.9882 181.657 95.2131 180.776 95.2131C180.113 95.2131 179.571 95.1018 179.15 94.8793C178.733 94.6567 178.406 94.3963 178.17 94.098C177.933 93.7997 177.751 93.5346 177.623 93.3026H177.445V95H175.371ZM177.452 89.5455C177.452 90.3125 177.564 90.9848 177.786 91.5625C178.009 92.1402 178.331 92.5923 178.752 92.919C179.174 93.241 179.69 93.402 180.3 93.402C180.935 93.402 181.465 93.2339 181.891 92.8977C182.317 92.5568 182.639 92.0952 182.857 91.5128C183.08 90.9304 183.191 90.2746 183.191 89.5455C183.191 88.8258 183.082 88.1795 182.864 87.6065C182.651 87.0336 182.329 86.5814 181.898 86.25C181.472 85.9186 180.94 85.7528 180.3 85.7528C179.685 85.7528 179.164 85.9115 178.738 86.2287C178.317 86.5459 177.997 86.9886 177.779 87.5568C177.561 88.125 177.452 88.7879 177.452 89.5455ZM192.422 95.2202C191.347 95.2202 190.422 94.9905 189.645 94.5312C188.873 94.0672 188.277 93.4162 187.855 92.5781C187.439 91.7353 187.23 90.7481 187.23 89.6165C187.23 88.4991 187.439 87.5142 187.855 86.6619C188.277 85.8097 188.864 85.1444 189.617 84.6662C190.374 84.188 191.26 83.9489 192.273 83.9489C192.889 83.9489 193.485 84.0507 194.063 84.2543C194.641 84.4579 195.159 84.7775 195.618 85.2131C196.078 85.6487 196.44 86.2145 196.705 86.9105C196.97 87.6018 197.103 88.4422 197.103 89.4318V90.1847H188.431V88.5938H195.022C195.022 88.035 194.908 87.5402 194.681 87.1094C194.453 86.6738 194.134 86.3305 193.722 86.0795C193.315 85.8286 192.837 85.7031 192.287 85.7031C191.691 85.7031 191.17 85.8499 190.725 86.1435C190.284 86.4323 189.944 86.8111 189.702 87.2798C189.465 87.7438 189.347 88.2481 189.347 88.7926V90.0355C189.347 90.7647 189.475 91.3849 189.73 91.8963C189.991 92.4077 190.353 92.7983 190.817 93.0682C191.281 93.3333 191.823 93.4659 192.444 93.4659C192.846 93.4659 193.213 93.4091 193.544 93.2955C193.876 93.1771 194.162 93.0019 194.404 92.7699C194.645 92.5379 194.83 92.2514 194.958 91.9105L196.968 92.2727C196.807 92.8646 196.518 93.383 196.101 93.8281C195.689 94.2685 195.171 94.6117 194.546 94.858C193.926 95.0994 193.218 95.2202 192.422 95.2202ZM199.459 95V84.0909H201.511V85.8239H201.625C201.824 85.2367 202.174 84.7751 202.676 84.4389C203.183 84.098 203.756 83.9276 204.395 83.9276C204.527 83.9276 204.684 83.9323 204.864 83.9418C205.048 83.9512 205.193 83.9631 205.297 83.9773V86.0085C205.212 85.9848 205.06 85.9588 204.842 85.9304C204.625 85.8973 204.407 85.8807 204.189 85.8807C203.687 85.8807 203.24 85.9872 202.847 86.2003C202.458 86.4086 202.151 86.6998 201.923 87.0739C201.696 87.4432 201.582 87.8646 201.582 88.3381V95H199.459ZM207.135 99.0909V84.0909H209.208V85.8594H209.386C209.509 85.6321 209.687 85.3693 209.919 85.071C210.151 84.7727 210.473 84.5123 210.885 84.2898C211.297 84.0625 211.841 83.9489 212.518 83.9489C213.399 83.9489 214.185 84.1714 214.876 84.6165C215.567 85.0616 216.109 85.7031 216.502 86.5412C216.9 87.3793 217.099 88.3878 217.099 89.5668C217.099 90.7457 216.903 91.7566 216.51 92.5994C216.117 93.4375 215.577 94.0838 214.89 94.5384C214.204 94.9882 213.42 95.2131 212.539 95.2131C211.877 95.2131 211.334 95.1018 210.913 94.8793C210.496 94.6567 210.17 94.3963 209.933 94.098C209.696 93.7997 209.514 93.5346 209.386 93.3026H209.258V99.0909H207.135ZM209.216 89.5455C209.216 90.3125 209.327 90.9848 209.549 91.5625C209.772 92.1402 210.094 92.5923 210.515 92.919C210.937 93.241 211.453 93.402 212.064 93.402C212.698 93.402 213.228 93.2339 213.654 92.8977C214.081 92.5568 214.403 92.0952 214.62 91.5128C214.843 90.9304 214.954 90.2746 214.954 89.5455C214.954 88.8258 214.845 88.1795 214.627 87.6065C214.414 87.0336 214.092 86.5814 213.662 86.25C213.235 85.9186 212.703 85.7528 212.064 85.7528C211.448 85.7528 210.927 85.9115 210.501 86.2287C210.08 86.5459 209.76 86.9886 209.542 87.5568C209.324 88.125 209.216 88.7879 209.216 89.5455ZM219.478 95V84.0909H221.531V85.8239H221.645C221.843 85.2367 222.194 84.7751 222.696 84.4389C223.202 84.098 223.775 83.9276 224.414 83.9276C224.547 83.9276 224.703 83.9323 224.883 83.9418C225.068 83.9512 225.212 83.9631 225.316 83.9773V86.0085C225.231 85.9848 225.08 85.9588 224.862 85.9304C224.644 85.8973 224.426 85.8807 224.208 85.8807C223.707 85.8807 223.259 85.9872 222.866 86.2003C222.478 86.4086 222.17 86.6998 221.943 87.0739C221.716 87.4432 221.602 87.8646 221.602 88.3381V95H219.478ZM231.465 95.2202C230.39 95.2202 229.465 94.9905 228.688 94.5312C227.916 94.0672 227.32 93.4162 226.898 92.5781C226.482 91.7353 226.273 90.7481 226.273 89.6165C226.273 88.4991 226.482 87.5142 226.898 86.6619C227.32 85.8097 227.907 85.1444 228.66 84.6662C229.417 84.188 230.303 83.9489 231.316 83.9489C231.932 83.9489 232.528 84.0507 233.106 84.2543C233.683 84.4579 234.202 84.7775 234.661 85.2131C235.121 85.6487 235.483 86.2145 235.748 86.9105C236.013 87.6018 236.146 88.4422 236.146 89.4318V90.1847H227.474V88.5938H234.065C234.065 88.035 233.951 87.5402 233.724 87.1094C233.496 86.6738 233.177 86.3305 232.765 86.0795C232.358 85.8286 231.879 85.7031 231.33 85.7031C230.734 85.7031 230.213 85.8499 229.768 86.1435C229.327 86.4323 228.987 86.8111 228.745 87.2798C228.508 87.7438 228.39 88.2481 228.39 88.7926V90.0355C228.39 90.7647 228.518 91.3849 228.773 91.8963C229.034 92.4077 229.396 92.7983 229.86 93.0682C230.324 93.3333 230.866 93.4659 231.487 93.4659C231.889 93.4659 232.256 93.4091 232.587 93.2955C232.919 93.1771 233.205 93.0019 233.447 92.7699C233.688 92.5379 233.873 92.2514 234.001 91.9105L236.011 92.2727C235.85 92.8646 235.561 93.383 235.144 93.8281C234.732 94.2685 234.214 94.6117 233.589 94.858C232.969 95.0994 232.261 95.2202 231.465 95.2202ZM246.676 86.7543L244.752 87.0952C244.671 86.849 244.543 86.6146 244.368 86.392C244.198 86.1695 243.966 85.9872 243.672 85.8452C243.379 85.7031 243.012 85.6321 242.571 85.6321C241.97 85.6321 241.468 85.767 241.066 86.0369C240.663 86.3021 240.462 86.6454 240.462 87.0668C240.462 87.4313 240.597 87.7249 240.867 87.9474C241.137 88.17 241.572 88.3523 242.174 88.4943L243.907 88.892C244.91 89.1241 245.658 89.4815 246.151 89.9645C246.643 90.4474 246.89 91.0748 246.89 91.8466C246.89 92.5 246.7 93.0824 246.321 93.5938C245.947 94.1004 245.424 94.4981 244.752 94.7869C244.084 95.0758 243.31 95.2202 242.429 95.2202C241.208 95.2202 240.211 94.9598 239.439 94.4389C238.667 93.9134 238.194 93.1676 238.019 92.2017L240.071 91.8892C240.199 92.4242 240.462 92.8291 240.86 93.1037C241.257 93.3736 241.776 93.5085 242.415 93.5085C243.111 93.5085 243.667 93.3641 244.084 93.0753C244.501 92.7817 244.709 92.4242 244.709 92.0028C244.709 91.6619 244.581 91.3755 244.326 91.1435C244.075 90.9115 243.689 90.7363 243.168 90.6179L241.321 90.2131C240.303 89.9811 239.551 89.6117 239.063 89.1051C238.58 88.5985 238.338 87.9569 238.338 87.1804C238.338 86.5365 238.518 85.973 238.878 85.4901C239.238 85.0071 239.735 84.6307 240.37 84.3608C241.004 84.0862 241.731 83.9489 242.55 83.9489C243.729 83.9489 244.657 84.2045 245.334 84.7159C246.011 85.2225 246.459 85.902 246.676 86.7543ZM254.317 84.0909V85.7955H248.358V84.0909H254.317ZM249.956 81.4773H252.08V91.7969C252.08 92.2088 252.141 92.5189 252.264 92.7273C252.387 92.9309 252.546 93.0705 252.74 93.1463C252.939 93.2173 253.154 93.2528 253.386 93.2528C253.557 93.2528 253.706 93.241 253.834 93.2173C253.962 93.1937 254.061 93.1747 254.132 93.1605L254.516 94.9148C254.393 94.9621 254.217 95.0095 253.99 95.0568C253.763 95.1089 253.479 95.1373 253.138 95.142C252.579 95.1515 252.058 95.0521 251.575 94.8438C251.092 94.6354 250.702 94.3134 250.403 93.8778C250.105 93.4422 249.956 92.8954 249.956 92.2372V81.4773ZM259.841 95.2415C259.149 95.2415 258.524 95.1136 257.966 94.858C257.407 94.5975 256.964 94.2211 256.637 93.7287C256.315 93.2363 256.154 92.6326 256.154 91.9176C256.154 91.3021 256.273 90.7955 256.51 90.3977C256.746 90 257.066 89.6851 257.468 89.4531C257.871 89.2211 258.321 89.0459 258.818 88.9276C259.315 88.8092 259.822 88.7192 260.338 88.6577C260.991 88.5819 261.521 88.5204 261.929 88.473C262.336 88.4209 262.632 88.3381 262.816 88.2244C263.001 88.1108 263.093 87.9261 263.093 87.6705V87.6207C263.093 87.0005 262.918 86.5199 262.568 86.179C262.222 85.8381 261.706 85.6676 261.02 85.6676C260.305 85.6676 259.741 85.8262 259.329 86.1435C258.922 86.456 258.64 86.804 258.484 87.1875L256.488 86.733C256.725 86.0701 257.071 85.535 257.525 85.1278C257.984 84.7159 258.512 84.4176 259.109 84.233C259.706 84.0436 260.333 83.9489 260.991 83.9489C261.427 83.9489 261.888 84.0009 262.376 84.1051C262.868 84.2045 263.328 84.3892 263.754 84.6591C264.185 84.929 264.538 85.3149 264.812 85.8168C265.087 86.3139 265.224 86.9602 265.224 87.7557V95H263.15V93.5085H263.065C262.928 93.7831 262.722 94.053 262.447 94.3182C262.172 94.5833 261.82 94.8035 261.389 94.9787C260.958 95.1539 260.442 95.2415 259.841 95.2415ZM260.302 93.5369C260.889 93.5369 261.391 93.4209 261.808 93.1889C262.229 92.9569 262.549 92.6539 262.767 92.2798C262.989 91.901 263.1 91.4962 263.1 91.0653V89.6591C263.025 89.7348 262.878 89.8059 262.66 89.8722C262.447 89.9337 262.203 89.9882 261.929 90.0355C261.654 90.0781 261.386 90.1184 261.126 90.1562C260.866 90.1894 260.648 90.2178 260.473 90.2415C260.061 90.2936 259.684 90.3812 259.343 90.5043C259.007 90.6274 258.737 90.8049 258.534 91.0369C258.335 91.2642 258.235 91.5672 258.235 91.946C258.235 92.4716 258.43 92.8693 258.818 93.1392C259.206 93.4044 259.701 93.5369 260.302 93.5369ZM276.227 86.7543L274.303 87.0952C274.222 86.849 274.094 86.6146 273.919 86.392C273.749 86.1695 273.517 85.9872 273.223 85.8452C272.929 85.7031 272.563 85.6321 272.122 85.6321C271.521 85.6321 271.019 85.767 270.616 86.0369C270.214 86.3021 270.013 86.6454 270.013 87.0668C270.013 87.4313 270.148 87.7249 270.418 87.9474C270.688 88.17 271.123 88.3523 271.724 88.4943L273.457 88.892C274.461 89.1241 275.209 89.4815 275.702 89.9645C276.194 90.4474 276.44 91.0748 276.44 91.8466C276.44 92.5 276.251 93.0824 275.872 93.5938C275.498 94.1004 274.975 94.4981 274.303 94.7869C273.635 95.0758 272.861 95.2202 271.98 95.2202C270.759 95.2202 269.762 94.9598 268.99 94.4389C268.218 93.9134 267.745 93.1676 267.57 92.2017L269.622 91.8892C269.75 92.4242 270.013 92.8291 270.411 93.1037C270.808 93.3736 271.327 93.5085 271.966 93.5085C272.662 93.5085 273.218 93.3641 273.635 93.0753C274.052 92.7817 274.26 92.4242 274.26 92.0028C274.26 91.6619 274.132 91.3755 273.876 91.1435C273.625 90.9115 273.24 90.7363 272.719 90.6179L270.872 90.2131C269.854 89.9811 269.101 89.6117 268.614 89.1051C268.131 88.5985 267.889 87.9569 267.889 87.1804C267.889 86.5365 268.069 85.973 268.429 85.4901C268.789 85.0071 269.286 84.6307 269.92 84.3608C270.555 84.0862 271.282 83.9489 272.101 83.9489C273.28 83.9489 274.208 84.2045 274.885 84.7159C275.562 85.2225 276.009 85.902 276.227 86.7543ZM278.775 95V84.0909H280.899V95H278.775ZM279.848 82.4077C279.478 82.4077 279.161 82.2846 278.896 82.0384C278.636 81.7874 278.505 81.4891 278.505 81.1435C278.505 80.7931 278.636 80.4948 278.896 80.2486C279.161 79.9976 279.478 79.8722 279.848 79.8722C280.217 79.8722 280.532 79.9976 280.792 80.2486C281.057 80.4948 281.19 80.7931 281.19 81.1435C281.19 81.4891 281.057 81.7874 280.792 82.0384C280.532 82.2846 280.217 82.4077 279.848 82.4077ZM60.6023 106.754L58.6776 107.095C58.5971 106.849 58.4692 106.615 58.294 106.392C58.1236 106.17 57.8916 105.987 57.598 105.845C57.3045 105.703 56.9375 105.632 56.4972 105.632C55.8958 105.632 55.3939 105.767 54.9915 106.037C54.589 106.302 54.3878 106.645 54.3878 107.067C54.3878 107.431 54.5227 107.725 54.7926 107.947C55.0625 108.17 55.4981 108.352 56.0994 108.494L57.8324 108.892C58.8362 109.124 59.5843 109.482 60.0767 109.964C60.5691 110.447 60.8153 111.075 60.8153 111.847C60.8153 112.5 60.6259 113.082 60.2472 113.594C59.8731 114.1 59.3499 114.498 58.6776 114.787C58.0099 115.076 57.2358 115.22 56.3551 115.22C55.1335 115.22 54.1368 114.96 53.3651 114.439C52.5933 113.913 52.1198 113.168 51.9446 112.202L53.9972 111.889C54.125 112.424 54.3878 112.829 54.7855 113.104C55.1832 113.374 55.7017 113.509 56.3409 113.509C57.0369 113.509 57.5933 113.364 58.0099 113.075C58.4266 112.782 58.6349 112.424 58.6349 112.003C58.6349 111.662 58.5071 111.375 58.2514 111.143C58.0005 110.911 57.6146 110.736 57.0938 110.618L55.2472 110.213C54.2292 109.981 53.4763 109.612 52.9886 109.105C52.5057 108.598 52.2642 107.957 52.2642 107.18C52.2642 106.536 52.4441 105.973 52.804 105.49C53.1638 105.007 53.661 104.631 54.2955 104.361C54.9299 104.086 55.6567 103.949 56.4759 103.949C57.6548 103.949 58.5829 104.205 59.2599 104.716C59.937 105.223 60.3845 105.902 60.6023 106.754ZM67.8519 115.22C66.7771 115.22 65.8514 114.991 65.0749 114.531C64.3031 114.067 63.7066 113.416 63.2852 112.578C62.8685 111.735 62.6602 110.748 62.6602 109.616C62.6602 108.499 62.8685 107.514 63.2852 106.662C63.7066 105.81 64.2937 105.144 65.0465 104.666C65.8041 104.188 66.6895 103.949 67.7028 103.949C68.3183 103.949 68.9149 104.051 69.4925 104.254C70.0702 104.458 70.5887 104.777 71.0479 105.213C71.5072 105.649 71.8694 106.214 72.1346 106.911C72.3997 107.602 72.5323 108.442 72.5323 109.432V110.185H63.8604V108.594H70.4513C70.4513 108.035 70.3377 107.54 70.1104 107.109C69.8832 106.674 69.5636 106.33 69.1516 106.08C68.7444 105.829 68.2662 105.703 67.717 105.703C67.1204 105.703 66.5996 105.85 66.1545 106.143C65.7141 106.432 65.3732 106.811 65.1317 107.28C64.895 107.744 64.7766 108.248 64.7766 108.793V110.036C64.7766 110.765 64.9045 111.385 65.1602 111.896C65.4206 112.408 65.7828 112.798 66.2468 113.068C66.7108 113.333 67.253 113.466 67.8732 113.466C68.2757 113.466 68.6426 113.409 68.9741 113.295C69.3055 113.177 69.592 113.002 69.8335 112.77C70.0749 112.538 70.2596 112.251 70.3874 111.911L72.3974 112.273C72.2364 112.865 71.9476 113.383 71.5309 113.828C71.119 114.268 70.6005 114.612 69.9755 114.858C69.3552 115.099 68.6474 115.22 67.8519 115.22ZM75.0589 115V100.455H77.1825V105.859H77.3104C77.4335 105.632 77.611 105.369 77.843 105.071C78.075 104.773 78.397 104.512 78.8089 104.29C79.2209 104.062 79.7654 103.949 80.4425 103.949C81.3232 103.949 82.1091 104.171 82.8004 104.616C83.4917 105.062 84.0339 105.703 84.4268 106.541C84.8246 107.379 85.0234 108.388 85.0234 109.567C85.0234 110.746 84.8269 111.757 84.4339 112.599C84.041 113.437 83.5012 114.084 82.8146 114.538C82.1281 114.988 81.3445 115.213 80.4638 115.213C79.8009 115.213 79.2588 115.102 78.8374 114.879C78.4207 114.657 78.094 114.396 77.8572 114.098C77.6205 113.8 77.4382 113.535 77.3104 113.303H77.1328V115H75.0589ZM77.1399 109.545C77.1399 110.312 77.2512 110.985 77.4737 111.562C77.6963 112.14 78.0182 112.592 78.4396 112.919C78.861 113.241 79.3771 113.402 79.9879 113.402C80.6224 113.402 81.1527 113.234 81.5788 112.898C82.005 112.557 82.3269 112.095 82.5447 111.513C82.7673 110.93 82.8786 110.275 82.8786 109.545C82.8786 108.826 82.7696 108.179 82.5518 107.607C82.3388 107.034 82.0168 106.581 81.5859 106.25C81.1598 105.919 80.6271 105.753 79.9879 105.753C79.3724 105.753 78.8516 105.911 78.4254 106.229C78.004 106.546 77.6844 106.989 77.4666 107.557C77.2488 108.125 77.1399 108.788 77.1399 109.545ZM90.5827 115.241C89.8915 115.241 89.2665 115.114 88.7077 114.858C88.149 114.598 87.7063 114.221 87.3796 113.729C87.0576 113.236 86.8967 112.633 86.8967 111.918C86.8967 111.302 87.015 110.795 87.2518 110.398C87.4885 110 87.8081 109.685 88.2106 109.453C88.613 109.221 89.0629 109.046 89.56 108.928C90.0572 108.809 90.5638 108.719 91.0799 108.658C91.7333 108.582 92.2636 108.52 92.6708 108.473C93.078 108.421 93.3739 108.338 93.5586 108.224C93.7433 108.111 93.8356 107.926 93.8356 107.67V107.621C93.8356 107 93.6604 106.52 93.31 106.179C92.9644 105.838 92.4483 105.668 91.7617 105.668C91.0468 105.668 90.4833 105.826 90.0714 106.143C89.6642 106.456 89.3825 106.804 89.2262 107.188L87.2305 106.733C87.4672 106.07 87.8129 105.535 88.2674 105.128C88.7267 104.716 89.2546 104.418 89.8512 104.233C90.4478 104.044 91.0752 103.949 91.7333 103.949C92.1689 103.949 92.6306 104.001 93.1183 104.105C93.6107 104.205 94.07 104.389 94.4961 104.659C94.927 104.929 95.2797 105.315 95.5543 105.817C95.829 106.314 95.9663 106.96 95.9663 107.756V115H93.8924V113.509H93.8072C93.6699 113.783 93.4639 114.053 93.1893 114.318C92.9147 114.583 92.5619 114.804 92.131 114.979C91.7002 115.154 91.1841 115.241 90.5827 115.241ZM91.0444 113.537C91.6315 113.537 92.1334 113.421 92.5501 113.189C92.9715 112.957 93.2911 112.654 93.5089 112.28C93.7314 111.901 93.8427 111.496 93.8427 111.065V109.659C93.7669 109.735 93.6201 109.806 93.4023 109.872C93.1893 109.934 92.9454 109.988 92.6708 110.036C92.3962 110.078 92.1287 110.118 91.8683 110.156C91.6078 110.189 91.39 110.218 91.2148 110.241C90.8029 110.294 90.4265 110.381 90.0856 110.504C89.7494 110.627 89.4795 110.805 89.2759 111.037C89.0771 111.264 88.9776 111.567 88.9776 111.946C88.9776 112.472 89.1718 112.869 89.56 113.139C89.9483 113.404 90.4431 113.537 91.0444 113.537ZM100.918 108.523V115H98.7947V104.091H100.833V105.866H100.968C101.219 105.289 101.612 104.825 102.147 104.474C102.687 104.124 103.366 103.949 104.185 103.949C104.929 103.949 105.58 104.105 106.138 104.418C106.697 104.725 107.13 105.185 107.438 105.795C107.746 106.406 107.9 107.161 107.9 108.061V115H105.776V108.317C105.776 107.526 105.57 106.908 105.158 106.463C104.746 106.013 104.181 105.788 103.461 105.788C102.969 105.788 102.531 105.895 102.147 106.108C101.768 106.321 101.468 106.634 101.245 107.045C101.027 107.453 100.918 107.945 100.918 108.523ZM111.7 119.091C111.382 119.091 111.094 119.065 110.833 119.013C110.573 118.965 110.379 118.913 110.251 118.857L110.762 117.116C111.15 117.221 111.496 117.266 111.799 117.251C112.102 117.237 112.37 117.124 112.602 116.911C112.838 116.697 113.047 116.349 113.227 115.866L113.489 115.142L109.498 104.091H111.771L114.533 112.557H114.647L117.41 104.091H119.69L115.194 116.456C114.986 117.024 114.72 117.505 114.398 117.898C114.076 118.295 113.693 118.594 113.248 118.793C112.803 118.991 112.287 119.091 111.7 119.091ZM124.548 115.241C123.856 115.241 123.231 115.114 122.673 114.858C122.114 114.598 121.671 114.221 121.344 113.729C121.022 113.236 120.862 112.633 120.862 111.918C120.862 111.302 120.98 110.795 121.217 110.398C121.453 110 121.773 109.685 122.175 109.453C122.578 109.221 123.028 109.046 123.525 108.928C124.022 108.809 124.529 108.719 125.045 108.658C125.698 108.582 126.228 108.52 126.636 108.473C127.043 108.421 127.339 108.338 127.523 108.224C127.708 108.111 127.8 107.926 127.8 107.67V107.621C127.8 107 127.625 106.52 127.275 106.179C126.929 105.838 126.413 105.668 125.727 105.668C125.012 105.668 124.448 105.826 124.036 106.143C123.629 106.456 123.347 106.804 123.191 107.188L121.195 106.733C121.432 106.07 121.778 105.535 122.232 105.128C122.692 104.716 123.219 104.418 123.816 104.233C124.413 104.044 125.04 103.949 125.698 103.949C126.134 103.949 126.595 104.001 127.083 104.105C127.576 104.205 128.035 104.389 128.461 104.659C128.892 104.929 129.245 105.315 129.519 105.817C129.794 106.314 129.931 106.96 129.931 107.756V115H127.857V113.509H127.772C127.635 113.783 127.429 114.053 127.154 114.318C126.879 114.583 126.527 114.804 126.096 114.979C125.665 115.154 125.149 115.241 124.548 115.241ZM125.009 113.537C125.596 113.537 126.098 113.421 126.515 113.189C126.936 112.957 127.256 112.654 127.474 112.28C127.696 111.901 127.808 111.496 127.808 111.065V109.659C127.732 109.735 127.585 109.806 127.367 109.872C127.154 109.934 126.91 109.988 126.636 110.036C126.361 110.078 126.094 110.118 125.833 110.156C125.573 110.189 125.355 110.218 125.18 110.241C124.768 110.294 124.391 110.381 124.05 110.504C123.714 110.627 123.444 110.805 123.241 111.037C123.042 111.264 122.942 111.567 122.942 111.946C122.942 112.472 123.137 112.869 123.525 113.139C123.913 113.404 124.408 113.537 125.009 113.537ZM134.713 111.3L134.699 108.707H135.068L139.414 104.091H141.957L137 109.347H136.666L134.713 111.3ZM132.76 115V100.455H134.883V115H132.76ZM139.649 115L135.743 109.815L137.206 108.331L142.255 115H139.649Z" fill="black"/>
<path d="M154.675 100.455V115H152.474V102.656H152.388L148.908 104.929V102.827L152.538 100.455H154.675ZM163.674 115.241C162.552 115.237 161.593 114.941 160.798 114.354C160.002 113.767 159.394 112.912 158.972 111.79C158.551 110.668 158.34 109.316 158.34 107.734C158.34 106.158 158.551 104.811 158.972 103.693C159.398 102.576 160.009 101.723 160.805 101.136C161.605 100.549 162.561 100.256 163.674 100.256C164.787 100.256 165.741 100.552 166.536 101.143C167.332 101.731 167.94 102.583 168.362 103.7C168.788 104.813 169.001 106.158 169.001 107.734C169.001 109.321 168.79 110.675 168.369 111.797C167.947 112.914 167.339 113.769 166.543 114.361C165.748 114.948 164.791 115.241 163.674 115.241ZM163.674 113.345C164.659 113.345 165.428 112.865 165.982 111.903C166.541 110.942 166.82 109.553 166.82 107.734C166.82 106.527 166.692 105.507 166.437 104.673C166.186 103.835 165.824 103.201 165.35 102.77C164.881 102.334 164.323 102.116 163.674 102.116C162.694 102.116 161.924 102.599 161.366 103.565C160.807 104.531 160.525 105.921 160.521 107.734C160.521 108.946 160.646 109.972 160.897 110.81C161.153 111.643 161.515 112.275 161.984 112.706C162.452 113.132 163.016 113.345 163.674 113.345ZM176.584 115.241C175.462 115.237 174.503 114.941 173.708 114.354C172.912 113.767 172.304 112.912 171.882 111.79C171.461 110.668 171.25 109.316 171.25 107.734C171.25 106.158 171.461 104.811 171.882 103.693C172.309 102.576 172.919 101.723 173.715 101.136C174.515 100.549 175.471 100.256 176.584 100.256C177.697 100.256 178.651 100.552 179.446 101.143C180.242 101.731 180.85 102.583 181.272 103.7C181.698 104.813 181.911 106.158 181.911 107.734C181.911 109.321 181.7 110.675 181.279 111.797C180.857 112.914 180.249 113.769 179.453 114.361C178.658 114.948 177.702 115.241 176.584 115.241ZM176.584 113.345C177.569 113.345 178.338 112.865 178.892 111.903C179.451 110.942 179.73 109.553 179.73 107.734C179.73 106.527 179.603 105.507 179.347 104.673C179.096 103.835 178.734 103.201 178.26 102.77C177.792 102.334 177.233 102.116 176.584 102.116C175.604 102.116 174.835 102.599 174.276 103.565C173.717 104.531 173.435 105.921 173.431 107.734C173.431 108.946 173.556 109.972 173.807 110.81C174.063 111.643 174.425 112.275 174.894 112.706C175.363 113.132 175.926 113.345 176.584 113.345ZM184.629 115V100.455H186.824V107.401H187.001L193.102 100.455H195.865L189.999 107.003L195.886 115H193.244L188.543 108.501L186.824 110.476V115H184.629Z" fill="#BF6A02"/>
<path d="M69 129.5C78.1127 129.5 85.5 136.887 85.5 146C85.5 155.113 78.1127 162.5 69 162.5C59.8873 162.5 52.5 155.113 52.5 146C52.5 136.887 59.8873 129.5 69 129.5Z" fill="#2C2C2C"/>
<path d="M69 129.5C78.1127 129.5 85.5 136.887 85.5 146C85.5 155.113 78.1127 162.5 69 162.5C59.8873 162.5 52.5 155.113 52.5 146C52.5 136.887 59.8873 129.5 69 129.5Z" stroke="white" stroke-width="3" stroke-linecap="round"/>
<path d="M75.6666 153.5V151.833C75.6666 150.949 75.3155 150.101 74.6903 149.476C74.0652 148.851 73.2174 148.5 72.3333 148.5H65.6666C64.7826 148.5 63.9347 148.851 63.3096 149.476C62.6845 150.101 62.3333 150.949 62.3333 151.833V153.5M72.3333 141.833C72.3333 143.674 70.8409 145.167 69 145.167C67.159 145.167 65.6666 143.674 65.6666 141.833C65.6666 139.992 67.159 138.5 69 138.5C70.8409 138.5 72.3333 139.992 72.3333 141.833Z" stroke="#F5F5F5" stroke-width="2" stroke-linecap="round" stroke-linejoin="round"/>
<path d="M99 129.5C108.113 129.5 115.5 136.887 115.5 146C115.5 155.113 108.113 162.5 99 162.5C89.8873 162.5 82.5 155.113 82.5 146C82.5 136.887 89.8873 129.5 99 129.5Z" fill="#2C2C2C"/>
<path d="M99 129.5C108.113 129.5 115.5 136.887 115.5 146C115.5 155.113 108.113 162.5 99 162.5C89.8873 162.5 82.5 155.113 82.5 146C82.5 136.887 89.8873 129.5 99 129.5Z" stroke="white" stroke-width="3" stroke-linecap="round"/>
<path d="M105.667 153.5V151.833C105.667 150.949 105.315 150.101 104.69 149.476C104.065 148.851 103.217 148.5 102.333 148.5H95.6666C94.7826 148.5 93.9347 148.851 93.3096 149.476C92.6845 150.101 92.3333 150.949 92.3333 151.833V153.5M102.333 141.833C102.333 143.674 100.841 145.167 99 145.167C97.159 145.167 95.6666 143.674 95.6666 141.833C95.6666 139.992 97.159 138.5 99 138.5C100.841 138.5 102.333 139.992 102.333 141.833Z" stroke="#F5F5F5" stroke-width="2" stroke-linecap="round" stroke-linejoin="round"/>
<path d="M129 129.5C138.113 129.5 145.5 136.887 145.5 146C145.5 155.113 138.113 162.5 129 162.5C119.887 162.5 112.5 155.113 112.5 146C112.5 136.887 119.887 129.5 129 129.5Z" fill="#2C2C2C"/>
<path d="M129 129.5C138.113 129.5 145.5 136.887 145.5 146C145.5 155.113 138.113 162.5 129 162.5C119.887 162.5 112.5 155.113 112.5 146C112.5 136.887 119.887 129.5 129 129.5Z" stroke="white" stroke-width="3" stroke-linecap="round"/>
<path d="M135.667 153.5V151.833C135.667 150.949 135.315 150.101 134.69 149.476C134.065 148.851 133.217 148.5 132.333 148.5H125.667C124.783 148.5 123.935 148.851 123.31 149.476C122.685 150.101 122.333 150.949 122.333 151.833V153.5M132.333 141.833C132.333 143.674 130.841 145.167 129 145.167C127.159 145.167 125.667 143.674 125.667 141.833C125.667 139.992 127.159 138.5 129 138.5C130.841 138.5 132.333 139.992 132.333 141.833Z" stroke="#F5F5F5" stroke-width="2" stroke-linecap="round" stroke-linejoin="round"/>
<path d="M163.292 124.618L161.024 129.216L155.951 129.955C155.042 130.087 154.677 131.209 155.337 131.851L159.007 135.428L158.139 140.48C157.983 141.393 158.944 142.077 159.75 141.65L164.288 139.264L168.826 141.65C169.632 142.073 170.594 141.393 170.438 140.48L169.569 135.428L173.24 131.851C173.899 131.209 173.535 130.087 172.625 129.955L167.552 129.216L165.285 124.618C164.878 123.799 163.701 123.789 163.292 124.618Z" fill="#E6A000"/>
<path d="M187.292 124.618L185.024 129.216L179.951 129.955C179.042 130.087 178.677 131.209 179.337 131.851L183.007 135.428L182.139 140.48C181.983 141.393 182.944 142.077 183.75 141.65L188.288 139.264L192.826 141.65C193.632 142.073 194.594 141.393 194.438 140.48L193.569 135.428L197.24 131.851C197.899 131.209 197.535 130.087 196.625 129.955L191.552 129.216L189.285 124.618C188.878 123.799 187.701 123.789 187.292 124.618Z" fill="#E6A000"/>
<path d="M211.292 124.618L209.024 129.216L203.951 129.955C203.042 130.087 202.677 131.209 203.337 131.851L207.007 135.428L206.139 140.48C205.983 141.393 206.944 142.077 207.75 141.65L212.288 139.264L216.826 141.65C217.632 142.073 218.594 141.393 218.438 140.48L217.569 135.428L221.24 131.851C221.899 131.209 221.535 130.087 220.625 129.955L215.552 129.216L213.285 124.618C212.878 123.799 211.701 123.789 211.292 124.618Z" fill="#E6A000"/>
<path d="M235.292 124.618L233.024 129.216L227.951 129.955C227.042 130.087 226.677 131.209 227.337 131.851L231.007 135.428L230.139 140.48C229.983 141.393 230.944 142.077 231.75 141.65L236.288 139.264L240.826 141.65C241.632 142.073 242.594 141.393 242.438 140.48L241.569 135.428L245.24 131.851C245.899 131.209 245.535 130.087 244.625 129.955L239.552 129.216L237.285 124.618C236.878 123.799 235.701 123.789 235.292 124.618Z" fill="#E6A000"/>
<defs>
<filter id="filter0_d_18_158" x="0" y="0" width="367" height="203" filterUnits="userSpaceOnUse" color-interpolation-filters="sRGB">
<feFlood flood-opacity="0" result="BackgroundImageFix"/>
<feColorMatrix in="SourceAlpha" type="matrix" values="0 0 0 0 0 0 0 0 0 0 0 0 0 0 0 0 0 0 127 0" result="hardAlpha"/>
<feOffset dy="4"/>
<feGaussianBlur stdDeviation="5"/>
<feComposite in2="hardAlpha" operator="out"/>
<feColorMatrix type="matrix" values="0 0 0 0 0 0 0 0 0 0 0 0 0 0 0 0 0 0 0.25 0"/>
<feBlend mode="normal" in2="BackgroundImageFix" result="effect1_dropShadow_18_158"/>
<feBlend mode="normal" in="SourceGraphic" in2="effect1_dropShadow_18_158" result="shape"/>
</filter>
</defs>
</svg>
