<svg width="136" height="44" viewBox="0 0 136 44" fill="none" xmlns="http://www.w3.org/2000/svg">
<path d="M22 0.5C33.8741 0.5 43.5 10.1259 43.5 22C43.5 33.8741 33.8741 43.5 22 43.5C10.1259 43.5 0.5 33.8741 0.5 22C0.5 10.1259 10.1259 0.5 22 0.5Z" fill="#E6A000"/>
<path d="M22 0.5C33.8741 0.5 43.5 10.1259 43.5 22C43.5 33.8741 33.8741 43.5 22 43.5C10.1259 43.5 0.5 33.8741 0.5 22C0.5 10.1259 10.1259 0.5 22 0.5Z" stroke="#BF6A02" stroke-linecap="round"/>
<g clip-path="url(#clip0_19_100)">
<path d="M22 30.3334C26.6024 30.3334 30.3333 26.6025 30.3333 22.0001C30.3333 17.3977 26.6024 13.6667 22 13.6667C17.3976 13.6667 13.6667 17.3977 13.6667 22.0001C13.6667 26.6025 17.3976 30.3334 22 30.3334Z" stroke="#F5F5F5" stroke-width="2" stroke-linecap="round" stroke-linejoin="round"/>
<path d="M24.5 19.5001H19.5V24.5001H24.5V19.5001Z" stroke="#F5F5F5" stroke-width="2" stroke-linecap="round" stroke-linejoin="round"/>
</g>
<path d="M59.524 31C59.332 31 59.172 30.932 59.044 30.796L56.644 28.396C56.508 28.268 56.44 28.108 56.44 27.916V15.304C56.44 15.104 56.54 15.004 56.74 15.004H60.136C60.336 15.004 60.436 15.104 60.436 15.304V27.784H63.124V15.304C63.124 15.104 63.224 15.004 63.424 15.004H66.82C67.02 15.004 67.12 15.104 67.12 15.304V27.784H69.796V15.304C69.796 15.104 69.896 15.004 70.096 15.004H73.504C73.704 15.004 73.804 15.104 73.804 15.304V27.916C73.804 28.108 73.736 28.268 73.6 28.396L71.2 30.796C71.064 30.932 70.904 31 70.72 31H67.9C67.716 31 67.556 30.932 67.42 30.796L65.404 28.78H64.84L62.824 30.796C62.688 30.932 62.528 31 62.344 31H59.524ZM82.066 31C81.986 31 81.898 30.988 81.802 30.964C81.714 30.94 81.63 30.92 81.55 30.904L79.414 30.376L76.966 29.56C76.726 29.48 76.606 29.248 76.606 28.864V20.884C76.606 20.692 76.674 20.532 76.81 20.404L79.21 18.004C79.346 17.868 79.506 17.8 79.69 17.8H83.53C83.714 17.8 83.874 17.868 84.01 18.004L86.41 20.404C86.546 20.532 86.614 20.692 86.614 20.884V25.804H80.17L80.086 27.4L81.79 27.964L84.85 28.18C84.986 28.204 85.054 28.296 85.054 28.456V30.7C85.054 30.9 84.954 31 84.754 31H82.066ZM81.586 23.92H81.814C82.206 23.92 82.518 23.772 82.75 23.476C82.99 23.18 83.11 22.78 83.11 22.276V22.036C83.11 21.54 82.99 21.144 82.75 20.848C82.518 20.552 82.206 20.404 81.814 20.404H81.574C81.19 20.404 80.882 20.552 80.65 20.848C80.426 21.144 80.314 21.54 80.314 22.036V22.276C80.314 22.78 80.426 23.18 80.65 23.476C80.882 23.772 81.194 23.92 81.586 23.92ZM89.4119 31C89.2119 31 89.1119 30.9 89.1119 30.7V15.304C89.1119 15.104 89.2119 15.004 89.4119 15.004H92.6159C92.8159 15.004 92.9159 15.104 92.9159 15.304V18.604L93.5159 18.004C93.6439 17.868 93.8039 17.8 93.9959 17.8H95.8319C96.0159 17.8 96.1759 17.868 96.3119 18.004L98.7119 20.404C98.8479 20.532 98.9159 20.692 98.9159 20.884V27.916C98.9159 28.108 98.8479 28.268 98.7119 28.396L96.3119 30.796C96.1759 30.932 96.0159 31 95.8319 31H89.4119ZM92.9159 28.204H94.4279C94.6919 28.204 94.8719 28.152 94.9679 28.048C95.0639 27.944 95.1119 27.76 95.1119 27.496V21.304C95.1119 21.04 95.0639 20.856 94.9679 20.752C94.8719 20.648 94.6919 20.596 94.4279 20.596H93.5879C93.3319 20.596 93.1559 20.648 93.0599 20.752C92.9639 20.856 92.9159 21.04 92.9159 21.304V28.204ZM101.649 31C101.449 31 101.349 30.9 101.349 30.7V28.756C101.349 28.572 101.409 28.452 101.529 28.396L103.977 26.944V25.696L101.529 24.376C101.409 24.304 101.349 24.18 101.349 24.004V20.176C101.349 20.088 101.361 20.016 101.385 19.96C101.417 19.904 101.461 19.856 101.517 19.816L104.073 17.944C104.161 17.88 104.233 17.84 104.289 17.824C104.345 17.808 104.401 17.8 104.457 17.8H107.373C107.573 17.8 107.673 17.9 107.673 18.1V19.984C107.673 20.12 107.661 20.212 107.637 20.26C107.621 20.308 107.581 20.348 107.517 20.38L105.249 21.604V22.996L107.673 24.196C107.809 24.252 107.877 24.372 107.877 24.556V28.24C107.877 28.44 107.809 28.6 107.673 28.72L105.117 30.844C104.989 30.948 104.829 31 104.637 31H101.649ZM110.693 31C110.493 31 110.393 30.9 110.393 30.7V18.1C110.393 17.9 110.493 17.8 110.693 17.8H113.885C114.085 17.8 114.185 17.9 114.185 18.1V30.7C114.185 30.9 114.085 31 113.885 31H110.693ZM110.633 16.804C110.473 16.804 110.393 16.724 110.393 16.564V15.04C110.393 14.88 110.473 14.8 110.633 14.8H113.969C114.113 14.8 114.185 14.88 114.185 15.04V16.564C114.185 16.724 114.113 16.804 113.969 16.804H110.633ZM119.739 31C119.555 31 119.395 30.932 119.259 30.796L117.255 28.804C117.127 28.668 117.063 28.508 117.063 28.324V20.596H116.559C116.359 20.596 116.259 20.496 116.259 20.296V18.1C116.259 17.9 116.359 17.8 116.559 17.8H117.063V16.3C117.063 16.1 117.163 16 117.363 16H120.555C120.755 16 120.855 16.1 120.855 16.3V17.8H122.019C122.219 17.8 122.319 17.9 122.319 18.1V20.296C122.319 20.496 122.219 20.596 122.019 20.596H120.855V27.004C120.855 27.156 120.903 27.28 120.999 27.376L122.175 28.564C122.255 28.636 122.295 28.756 122.295 28.924V30.7C122.295 30.9 122.195 31 121.995 31H119.739ZM129.855 31C129.775 31 129.687 30.988 129.591 30.964C129.503 30.94 129.419 30.92 129.339 30.904L127.203 30.376L124.755 29.56C124.515 29.48 124.395 29.248 124.395 28.864V20.884C124.395 20.692 124.463 20.532 124.599 20.404L126.999 18.004C127.135 17.868 127.295 17.8 127.479 17.8H131.319C131.503 17.8 131.663 17.868 131.799 18.004L134.199 20.404C134.335 20.532 134.403 20.692 134.403 20.884V25.804H127.959L127.875 27.4L129.579 27.964L132.639 28.18C132.775 28.204 132.843 28.296 132.843 28.456V30.7C132.843 30.9 132.743 31 132.543 31H129.855ZM129.375 23.92H129.603C129.995 23.92 130.307 23.772 130.539 23.476C130.779 23.18 130.899 22.78 130.899 22.276V22.036C130.899 21.54 130.779 21.144 130.539 20.848C130.307 20.552 129.995 20.404 129.603 20.404H129.363C128.979 20.404 128.671 20.552 128.439 20.848C128.215 21.144 128.103 21.54 128.103 22.036V22.276C128.103 22.78 128.215 23.18 128.439 23.476C128.671 23.772 128.983 23.92 129.375 23.92Z" fill="black"/>
<defs>
<clipPath id="clip0_19_100">
<rect width="20" height="20" fill="white" transform="translate(12 12)"/>
</clipPath>
</defs>
</svg>
