<svg width="1440" height="96" viewBox="0 0 1440 96" fill="none" xmlns="http://www.w3.org/2000/svg">
<g filter="url(#filter0_d_19_58)">
<rect width="1440" height="90" fill="white"/>
</g>
<path d="M91 23.5C102.874 23.5 112.5 33.1259 112.5 45C112.5 56.8741 102.874 66.5 91 66.5C79.1259 66.5 69.5 56.8741 69.5 45C69.5 33.1259 79.1259 23.5 91 23.5Z" fill="#E6A000"/>
<path d="M91 23.5C102.874 23.5 112.5 33.1259 112.5 45C112.5 56.8741 102.874 66.5 91 66.5C79.1259 66.5 69.5 56.8741 69.5 45C69.5 33.1259 79.1259 23.5 91 23.5Z" stroke="#BF6A02" stroke-linecap="round"/>
<g clip-path="url(#clip0_19_58)">
<path d="M91 53.3333C95.6024 53.3333 99.3333 49.6024 99.3333 45C99.3333 40.3976 95.6024 36.6667 91 36.6667C86.3976 36.6667 82.6667 40.3976 82.6667 45C82.6667 49.6024 86.3976 53.3333 91 53.3333Z" stroke="#F5F5F5" stroke-width="2" stroke-linecap="round" stroke-linejoin="round"/>
<path d="M93.5 42.5H88.5V47.5H93.5V42.5Z" stroke="#F5F5F5" stroke-width="2" stroke-linecap="round" stroke-linejoin="round"/>
</g>
<path d="M128.524 54C128.332 54 128.172 53.932 128.044 53.796L125.644 51.396C125.508 51.268 125.44 51.108 125.44 50.916V38.304C125.44 38.104 125.54 38.004 125.74 38.004H129.136C129.336 38.004 129.436 38.104 129.436 38.304V50.784H132.124V38.304C132.124 38.104 132.224 38.004 132.424 38.004H135.82C136.02 38.004 136.12 38.104 136.12 38.304V50.784H138.796V38.304C138.796 38.104 138.896 38.004 139.096 38.004H142.504C142.704 38.004 142.804 38.104 142.804 38.304V50.916C142.804 51.108 142.736 51.268 142.6 51.396L140.2 53.796C140.064 53.932 139.904 54 139.72 54H136.9C136.716 54 136.556 53.932 136.42 53.796L134.404 51.78H133.84L131.824 53.796C131.688 53.932 131.528 54 131.344 54H128.524ZM151.066 54C150.986 54 150.898 53.988 150.802 53.964C150.714 53.94 150.63 53.92 150.55 53.904L148.414 53.376L145.966 52.56C145.726 52.48 145.606 52.248 145.606 51.864V43.884C145.606 43.692 145.674 43.532 145.81 43.404L148.21 41.004C148.346 40.868 148.506 40.8 148.69 40.8H152.53C152.714 40.8 152.874 40.868 153.01 41.004L155.41 43.404C155.546 43.532 155.614 43.692 155.614 43.884V48.804H149.17L149.086 50.4L150.79 50.964L153.85 51.18C153.986 51.204 154.054 51.296 154.054 51.456V53.7C154.054 53.9 153.954 54 153.754 54H151.066ZM150.586 46.92H150.814C151.206 46.92 151.518 46.772 151.75 46.476C151.99 46.18 152.11 45.78 152.11 45.276V45.036C152.11 44.54 151.99 44.144 151.75 43.848C151.518 43.552 151.206 43.404 150.814 43.404H150.574C150.19 43.404 149.882 43.552 149.65 43.848C149.426 44.144 149.314 44.54 149.314 45.036V45.276C149.314 45.78 149.426 46.18 149.65 46.476C149.882 46.772 150.194 46.92 150.586 46.92ZM158.412 54C158.212 54 158.112 53.9 158.112 53.7V38.304C158.112 38.104 158.212 38.004 158.412 38.004H161.616C161.816 38.004 161.916 38.104 161.916 38.304V41.604L162.516 41.004C162.644 40.868 162.804 40.8 162.996 40.8H164.832C165.016 40.8 165.176 40.868 165.312 41.004L167.712 43.404C167.848 43.532 167.916 43.692 167.916 43.884V50.916C167.916 51.108 167.848 51.268 167.712 51.396L165.312 53.796C165.176 53.932 165.016 54 164.832 54H158.412ZM161.916 51.204H163.428C163.692 51.204 163.872 51.152 163.968 51.048C164.064 50.944 164.112 50.76 164.112 50.496V44.304C164.112 44.04 164.064 43.856 163.968 43.752C163.872 43.648 163.692 43.596 163.428 43.596H162.588C162.332 43.596 162.156 43.648 162.06 43.752C161.964 43.856 161.916 44.04 161.916 44.304V51.204ZM170.649 54C170.449 54 170.349 53.9 170.349 53.7V51.756C170.349 51.572 170.409 51.452 170.529 51.396L172.977 49.944V48.696L170.529 47.376C170.409 47.304 170.349 47.18 170.349 47.004V43.176C170.349 43.088 170.361 43.016 170.385 42.96C170.417 42.904 170.461 42.856 170.517 42.816L173.073 40.944C173.161 40.88 173.233 40.84 173.289 40.824C173.345 40.808 173.401 40.8 173.457 40.8H176.373C176.573 40.8 176.673 40.9 176.673 41.1V42.984C176.673 43.12 176.661 43.212 176.637 43.26C176.621 43.308 176.581 43.348 176.517 43.38L174.249 44.604V45.996L176.673 47.196C176.809 47.252 176.877 47.372 176.877 47.556V51.24C176.877 51.44 176.809 51.6 176.673 51.72L174.117 53.844C173.989 53.948 173.829 54 173.637 54H170.649ZM179.693 54C179.493 54 179.393 53.9 179.393 53.7V41.1C179.393 40.9 179.493 40.8 179.693 40.8H182.885C183.085 40.8 183.185 40.9 183.185 41.1V53.7C183.185 53.9 183.085 54 182.885 54H179.693ZM179.633 39.804C179.473 39.804 179.393 39.724 179.393 39.564V38.04C179.393 37.88 179.473 37.8 179.633 37.8H182.969C183.113 37.8 183.185 37.88 183.185 38.04V39.564C183.185 39.724 183.113 39.804 182.969 39.804H179.633ZM188.739 54C188.555 54 188.395 53.932 188.259 53.796L186.255 51.804C186.127 51.668 186.063 51.508 186.063 51.324V43.596H185.559C185.359 43.596 185.259 43.496 185.259 43.296V41.1C185.259 40.9 185.359 40.8 185.559 40.8H186.063V39.3C186.063 39.1 186.163 39 186.363 39H189.555C189.755 39 189.855 39.1 189.855 39.3V40.8H191.019C191.219 40.8 191.319 40.9 191.319 41.1V43.296C191.319 43.496 191.219 43.596 191.019 43.596H189.855V50.004C189.855 50.156 189.903 50.28 189.999 50.376L191.175 51.564C191.255 51.636 191.295 51.756 191.295 51.924V53.7C191.295 53.9 191.195 54 190.995 54H188.739ZM198.855 54C198.775 54 198.687 53.988 198.591 53.964C198.503 53.94 198.419 53.92 198.339 53.904L196.203 53.376L193.755 52.56C193.515 52.48 193.395 52.248 193.395 51.864V43.884C193.395 43.692 193.463 43.532 193.599 43.404L195.999 41.004C196.135 40.868 196.295 40.8 196.479 40.8H200.319C200.503 40.8 200.663 40.868 200.799 41.004L203.199 43.404C203.335 43.532 203.403 43.692 203.403 43.884V48.804H196.959L196.875 50.4L198.579 50.964L201.639 51.18C201.775 51.204 201.843 51.296 201.843 51.456V53.7C201.843 53.9 201.743 54 201.543 54H198.855ZM198.375 46.92H198.603C198.995 46.92 199.307 46.772 199.539 46.476C199.779 46.18 199.899 45.78 199.899 45.276V45.036C199.899 44.54 199.779 44.144 199.539 43.848C199.307 43.552 198.995 43.404 198.603 43.404H198.363C197.979 43.404 197.671 43.552 197.439 43.848C197.215 44.144 197.103 44.54 197.103 45.036V45.276C197.103 45.78 197.215 46.18 197.439 46.476C197.671 46.772 197.983 46.92 198.375 46.92Z" fill="black"/>
<mask id="path-5-inside-1_19_58" fill="white">
<path d="M1233 33C1233 28.5817 1236.58 25 1241 25H1362C1366.42 25 1370 28.5817 1370 33V57C1370 61.4183 1366.42 65 1362 65H1241C1236.58 65 1233 61.4183 1233 57V33Z"/>
</mask>
<path d="M1233 33C1233 28.5817 1236.58 25 1241 25H1362C1366.42 25 1370 28.5817 1370 33V57C1370 61.4183 1366.42 65 1362 65H1241C1236.58 65 1233 61.4183 1233 57V33Z" fill="#2C2C2C"/>
<path d="M1241 25V26H1362V25V24H1241V25ZM1370 33H1369V57H1370H1371V33H1370ZM1362 65V64H1241V65V66H1362V65ZM1233 57H1234V33H1233H1232V57H1233ZM1241 65V64C1237.13 64 1234 60.866 1234 57H1233H1232C1232 61.9706 1236.03 66 1241 66V65ZM1370 57H1369C1369 60.866 1365.87 64 1362 64V65V66C1366.97 66 1371 61.9706 1371 57H1370ZM1362 25V26C1365.87 26 1369 29.134 1369 33H1370H1371C1371 28.0294 1366.97 24 1362 24V25ZM1241 25V24C1236.03 24 1232 28.0294 1232 33H1233H1234C1234 29.134 1237.13 26 1241 26V25Z" fill="#2C2C2C" mask="url(#path-5-inside-1_19_58)"/>
<path d="M1254.36 43C1254.24 42.6174 1254.07 42.2746 1253.87 41.9716C1253.67 41.6648 1253.43 41.4034 1253.15 41.1875C1252.87 40.9716 1252.56 40.8068 1252.2 40.6932C1251.85 40.5795 1251.47 40.5227 1251.05 40.5227C1250.36 40.5227 1249.73 40.7008 1249.16 41.0568C1248.6 41.4129 1248.15 41.9375 1247.82 42.6307C1247.48 43.3239 1247.32 44.1742 1247.32 45.1818C1247.32 46.1894 1247.49 47.0398 1247.82 47.733C1248.16 48.4261 1248.62 48.9508 1249.19 49.3068C1249.77 49.6629 1250.42 49.8409 1251.14 49.8409C1251.8 49.8409 1252.39 49.6989 1252.9 49.4148C1253.41 49.1269 1253.81 48.7216 1254.09 48.1989C1254.38 47.6723 1254.52 47.053 1254.52 46.3409L1254.95 46.4318H1251.45V45.1818H1255.89V46.4318C1255.89 47.3902 1255.68 48.2235 1255.27 48.9318C1254.87 49.6402 1254.31 50.1894 1253.59 50.5795C1252.88 50.9659 1252.06 51.1591 1251.14 51.1591C1250.11 51.1591 1249.2 50.9167 1248.42 50.4318C1247.64 49.947 1247.04 49.2576 1246.6 48.3636C1246.17 47.4697 1245.95 46.4091 1245.95 45.1818C1245.95 44.2614 1246.08 43.4337 1246.32 42.6989C1246.57 41.9602 1246.93 41.3314 1247.38 40.8125C1247.84 40.2936 1248.37 39.8958 1248.99 39.6193C1249.62 39.3428 1250.3 39.2045 1251.05 39.2045C1251.66 39.2045 1252.23 39.2973 1252.76 39.483C1253.3 39.6648 1253.77 39.9242 1254.19 40.2614C1254.61 40.5947 1254.96 40.9943 1255.24 41.4602C1255.52 41.9223 1255.71 42.4356 1255.82 43H1254.36ZM1261.78 51.1818C1260.94 51.1818 1260.21 50.9962 1259.6 50.625C1258.99 50.25 1258.53 49.7273 1258.2 49.0568C1257.87 48.3826 1257.71 47.5985 1257.71 46.7045C1257.71 45.8106 1257.87 45.0227 1258.2 44.3409C1258.53 43.6553 1258.99 43.1212 1259.57 42.7386C1260.16 42.3523 1260.85 42.1591 1261.64 42.1591C1262.1 42.1591 1262.54 42.2348 1262.99 42.3864C1263.43 42.5379 1263.83 42.7841 1264.2 43.125C1264.56 43.4621 1264.85 43.9091 1265.07 44.4659C1265.28 45.0227 1265.39 45.7083 1265.39 46.5227V47.0909H1258.66V45.9318H1264.03C1264.03 45.4394 1263.93 45 1263.73 44.6136C1263.54 44.2273 1263.26 43.9223 1262.9 43.6989C1262.55 43.4754 1262.13 43.3636 1261.64 43.3636C1261.11 43.3636 1260.64 43.4962 1260.25 43.7614C1259.87 44.0227 1259.57 44.3636 1259.36 44.7841C1259.15 45.2045 1259.05 45.6553 1259.05 46.1364V46.9091C1259.05 47.5682 1259.16 48.1269 1259.39 48.5852C1259.62 49.0398 1259.94 49.3864 1260.35 49.625C1260.76 49.8598 1261.24 49.9773 1261.78 49.9773C1262.13 49.9773 1262.45 49.928 1262.73 49.8295C1263.02 49.7273 1263.27 49.5758 1263.48 49.375C1263.68 49.1705 1263.85 48.9167 1263.96 48.6136L1265.25 48.9773C1265.12 49.4167 1264.89 49.803 1264.57 50.1364C1264.24 50.4659 1263.85 50.7235 1263.37 50.9091C1262.9 51.0909 1262.37 51.1818 1261.78 51.1818ZM1271.23 42.2727V43.4091H1266.7V42.2727H1271.23ZM1268.02 40.1818H1269.36V48.5C1269.36 48.8788 1269.42 49.1629 1269.53 49.3523C1269.64 49.5379 1269.78 49.6629 1269.96 49.7273C1270.14 49.7879 1270.32 49.8182 1270.52 49.8182C1270.67 49.8182 1270.79 49.8106 1270.88 49.7955C1270.98 49.7765 1271.06 49.7614 1271.11 49.75L1271.38 50.9545C1271.29 50.9886 1271.17 51.0227 1271 51.0568C1270.84 51.0947 1270.63 51.1136 1270.38 51.1136C1270.01 51.1136 1269.63 51.0322 1269.27 50.8693C1268.91 50.7064 1268.61 50.4583 1268.37 50.125C1268.14 49.7917 1268.02 49.3712 1268.02 48.8636V40.1818ZM1284.29 42.2727C1284.22 41.697 1283.94 41.25 1283.46 40.9318C1282.97 40.6136 1282.38 40.4545 1281.67 40.4545C1281.16 40.4545 1280.71 40.5379 1280.32 40.7045C1279.94 40.8712 1279.64 41.1004 1279.42 41.392C1279.21 41.6837 1279.11 42.0152 1279.11 42.3864C1279.11 42.697 1279.18 42.964 1279.33 43.1875C1279.48 43.4072 1279.67 43.5909 1279.91 43.7386C1280.14 43.8826 1280.39 44.0019 1280.65 44.0966C1280.9 44.1875 1281.14 44.2614 1281.36 44.3182L1282.54 44.6364C1282.84 44.7159 1283.18 44.8258 1283.55 44.9659C1283.92 45.1061 1284.28 45.2973 1284.62 45.5398C1284.97 45.7784 1285.25 46.0852 1285.48 46.4602C1285.7 46.8352 1285.81 47.2955 1285.81 47.8409C1285.81 48.4697 1285.65 49.0379 1285.32 49.5455C1284.99 50.053 1284.51 50.4564 1283.88 50.7557C1283.26 51.0549 1282.5 51.2045 1281.61 51.2045C1280.77 51.2045 1280.05 51.0701 1279.44 50.8011C1278.84 50.5322 1278.36 50.1572 1278.01 49.6761C1277.67 49.1951 1277.47 48.6364 1277.42 48H1278.88C1278.92 48.4394 1279.06 48.803 1279.32 49.0909C1279.58 49.375 1279.91 49.5871 1280.31 49.7273C1280.71 49.8636 1281.14 49.9318 1281.61 49.9318C1282.14 49.9318 1282.63 49.8447 1283.06 49.6705C1283.48 49.4924 1283.82 49.2462 1284.07 48.9318C1284.32 48.6136 1284.45 48.2424 1284.45 47.8182C1284.45 47.4318 1284.34 47.1174 1284.12 46.875C1283.91 46.6326 1283.62 46.4356 1283.27 46.2841C1282.92 46.1326 1282.54 46 1282.13 45.8864L1280.7 45.4773C1279.79 45.2159 1279.07 44.8428 1278.54 44.358C1278.01 43.8731 1277.74 43.2386 1277.74 42.4545C1277.74 41.803 1277.92 41.2348 1278.27 40.75C1278.63 40.2614 1279.1 39.8826 1279.7 39.6136C1280.31 39.3409 1280.98 39.2045 1281.72 39.2045C1282.47 39.2045 1283.14 39.339 1283.72 39.608C1284.3 39.8731 1284.77 40.2367 1285.11 40.6989C1285.45 41.161 1285.63 41.6856 1285.65 42.2727H1284.29ZM1291.74 42.2727V43.4091H1287.22V42.2727H1291.74ZM1288.54 40.1818H1289.88V48.5C1289.88 48.8788 1289.93 49.1629 1290.04 49.3523C1290.16 49.5379 1290.3 49.6629 1290.47 49.7273C1290.65 49.7879 1290.84 49.8182 1291.04 49.8182C1291.18 49.8182 1291.31 49.8106 1291.4 49.7955C1291.5 49.7765 1291.57 49.7614 1291.63 49.75L1291.9 50.9545C1291.81 50.9886 1291.68 51.0227 1291.52 51.0568C1291.36 51.0947 1291.15 51.1136 1290.9 51.1136C1290.52 51.1136 1290.15 51.0322 1289.79 50.8693C1289.43 50.7064 1289.13 50.4583 1288.89 50.125C1288.65 49.7917 1288.54 49.3712 1288.54 48.8636V40.1818ZM1296.33 51.2045C1295.77 51.2045 1295.27 51.1004 1294.82 50.892C1294.37 50.6799 1294.01 50.375 1293.75 49.9773C1293.48 49.5758 1293.35 49.0909 1293.35 48.5227C1293.35 48.0227 1293.45 47.6174 1293.64 47.3068C1293.84 46.9924 1294.11 46.7462 1294.43 46.5682C1294.76 46.3902 1295.13 46.2576 1295.53 46.1705C1295.93 46.0795 1296.33 46.0076 1296.74 45.9545C1297.27 45.8864 1297.7 45.8352 1298.03 45.8011C1298.36 45.7633 1298.6 45.7008 1298.75 45.6136C1298.91 45.5265 1298.99 45.375 1298.99 45.1591V45.1136C1298.99 44.553 1298.83 44.1174 1298.53 43.8068C1298.22 43.4962 1297.76 43.3409 1297.14 43.3409C1296.5 43.3409 1296 43.4811 1295.64 43.7614C1295.28 44.0417 1295.02 44.3409 1294.87 44.6591L1293.6 44.2045C1293.83 43.6742 1294.13 43.2614 1294.51 42.9659C1294.89 42.6667 1295.31 42.4583 1295.76 42.3409C1296.21 42.2197 1296.66 42.1591 1297.1 42.1591C1297.38 42.1591 1297.7 42.1932 1298.07 42.2614C1298.43 42.3258 1298.79 42.4602 1299.13 42.6648C1299.47 42.8693 1299.76 43.178 1299.99 43.5909C1300.21 44.0038 1300.33 44.5568 1300.33 45.25V51H1298.99V49.8182H1298.92C1298.83 50.0076 1298.68 50.2102 1298.46 50.4261C1298.25 50.642 1297.97 50.8258 1297.62 50.9773C1297.26 51.1288 1296.83 51.2045 1296.33 51.2045ZM1296.53 50C1297.06 50 1297.51 49.8958 1297.87 49.6875C1298.24 49.4792 1298.52 49.2102 1298.7 48.8807C1298.89 48.5511 1298.99 48.2045 1298.99 47.8409V46.6136C1298.93 46.6818 1298.8 46.7443 1298.61 46.8011C1298.42 46.8542 1298.2 46.9015 1297.95 46.9432C1297.71 46.9811 1297.46 47.0152 1297.23 47.0455C1297 47.072 1296.81 47.0947 1296.67 47.1136C1296.32 47.1591 1295.99 47.233 1295.69 47.3352C1295.39 47.4337 1295.15 47.5833 1294.96 47.7841C1294.78 47.9811 1294.69 48.25 1294.69 48.5909C1294.69 49.0568 1294.86 49.4091 1295.21 49.6477C1295.56 49.8826 1296 50 1296.53 50ZM1302.77 51V42.2727H1304.07V43.5909H1304.16C1304.32 43.1591 1304.61 42.8087 1305.02 42.5398C1305.44 42.2708 1305.91 42.1364 1306.43 42.1364C1306.53 42.1364 1306.65 42.1383 1306.8 42.142C1306.95 42.1458 1307.06 42.1515 1307.14 42.1591V43.5227C1307.09 43.5114 1306.99 43.4943 1306.83 43.4716C1306.67 43.4451 1306.5 43.4318 1306.32 43.4318C1305.9 43.4318 1305.52 43.5208 1305.18 43.6989C1304.85 43.8731 1304.59 44.1155 1304.4 44.4261C1304.21 44.733 1304.12 45.0833 1304.12 45.4773V51H1302.77ZM1313.07 42.2727V43.4091H1308.55V42.2727H1313.07ZM1309.87 40.1818H1311.21V48.5C1311.21 48.8788 1311.26 49.1629 1311.37 49.3523C1311.48 49.5379 1311.63 49.6629 1311.8 49.7273C1311.98 49.7879 1312.17 49.8182 1312.37 49.8182C1312.51 49.8182 1312.63 49.8106 1312.73 49.7955C1312.82 49.7765 1312.9 49.7614 1312.96 49.75L1313.23 50.9545C1313.14 50.9886 1313.01 51.0227 1312.85 51.0568C1312.69 51.0947 1312.48 51.1136 1312.23 51.1136C1311.85 51.1136 1311.48 51.0322 1311.12 50.8693C1310.76 50.7064 1310.46 50.4583 1310.22 50.125C1309.98 49.7917 1309.87 49.3712 1309.87 48.8636V40.1818ZM1318.65 51.1818C1317.81 51.1818 1317.09 50.9962 1316.48 50.625C1315.87 50.25 1315.4 49.7273 1315.07 49.0568C1314.75 48.3826 1314.58 47.5985 1314.58 46.7045C1314.58 45.8106 1314.75 45.0227 1315.07 44.3409C1315.4 43.6553 1315.86 43.1212 1316.45 42.7386C1317.04 42.3523 1317.73 42.1591 1318.52 42.1591C1318.97 42.1591 1319.42 42.2348 1319.86 42.3864C1320.31 42.5379 1320.71 42.7841 1321.07 43.125C1321.44 43.4621 1321.73 43.9091 1321.94 44.4659C1322.16 45.0227 1322.27 45.7083 1322.27 46.5227V47.0909H1315.54V45.9318H1320.9C1320.9 45.4394 1320.8 45 1320.61 44.6136C1320.41 44.2273 1320.14 43.9223 1319.78 43.6989C1319.42 43.4754 1319 43.3636 1318.52 43.3636C1317.98 43.3636 1317.52 43.4962 1317.13 43.7614C1316.74 44.0227 1316.45 44.3636 1316.24 44.7841C1316.03 45.2045 1315.92 45.6553 1315.92 46.1364V46.9091C1315.92 47.5682 1316.04 48.1269 1316.27 48.5852C1316.5 49.0398 1316.82 49.3864 1317.23 49.625C1317.63 49.8598 1318.11 49.9773 1318.65 49.9773C1319 49.9773 1319.32 49.928 1319.61 49.8295C1319.89 49.7273 1320.14 49.5758 1320.35 49.375C1320.56 49.1705 1320.72 48.9167 1320.83 48.6136L1322.13 48.9773C1321.99 49.4167 1321.76 49.803 1321.44 50.1364C1321.12 50.4659 1320.72 50.7235 1320.25 50.9091C1319.78 51.0909 1319.24 51.1818 1318.65 51.1818ZM1327.6 51.1818C1326.87 51.1818 1326.23 50.9981 1325.67 50.6307C1325.12 50.2595 1324.68 49.7367 1324.37 49.0625C1324.05 48.3845 1323.9 47.5833 1323.9 46.6591C1323.9 45.7424 1324.05 44.947 1324.37 44.2727C1324.68 43.5985 1325.12 43.0777 1325.68 42.7102C1326.24 42.3428 1326.89 42.1591 1327.62 42.1591C1328.19 42.1591 1328.64 42.2538 1328.97 42.4432C1329.3 42.6288 1329.56 42.8409 1329.73 43.0795C1329.91 43.3144 1330.05 43.5076 1330.15 43.6591H1330.26V39.3636H1331.6V51H1330.31V49.6591H1330.15C1330.05 49.8182 1329.91 50.0189 1329.73 50.2614C1329.54 50.5 1329.28 50.714 1328.95 50.9034C1328.61 51.089 1328.16 51.1818 1327.6 51.1818ZM1327.78 49.9773C1328.32 49.9773 1328.78 49.8371 1329.15 49.5568C1329.52 49.2727 1329.8 48.8807 1329.99 48.3807C1330.19 47.8769 1330.28 47.2955 1330.28 46.6364C1330.28 45.9848 1330.19 45.4148 1330 44.9261C1329.81 44.4337 1329.53 44.0511 1329.16 43.7784C1328.79 43.5019 1328.33 43.3636 1327.78 43.3636C1327.21 43.3636 1326.74 43.5095 1326.36 43.8011C1325.99 44.089 1325.71 44.4811 1325.52 44.9773C1325.33 45.4697 1325.24 46.0227 1325.24 46.6364C1325.24 47.2576 1325.33 47.822 1325.52 48.3295C1325.71 48.8333 1326 49.2348 1326.37 49.5341C1326.75 49.8295 1327.22 49.9773 1327.78 49.9773Z" fill="#F5F5F5"/>
<path d="M1348 49L1352 45L1348 41" stroke="#F5F5F5" stroke-width="1.6" stroke-linecap="round" stroke-linejoin="round"/>
<path d="M526.148 49V37.3636H530.602C531.443 37.3636 532.142 37.4962 532.699 37.7614C533.259 38.0227 533.678 38.3807 533.955 38.8352C534.235 39.2898 534.375 39.8049 534.375 40.3807C534.375 40.8542 534.284 41.2595 534.102 41.5966C533.92 41.9299 533.676 42.2008 533.369 42.4091C533.062 42.6174 532.72 42.767 532.341 42.858V42.9716C532.754 42.9943 533.15 43.1212 533.528 43.3523C533.911 43.5795 534.223 43.9015 534.466 44.3182C534.708 44.7348 534.83 45.2386 534.83 45.8295C534.83 46.4318 534.684 46.9735 534.392 47.4545C534.1 47.9318 533.661 48.3087 533.074 48.5852C532.487 48.8617 531.748 49 530.858 49H526.148ZM528.256 47.2386H530.523C531.288 47.2386 531.839 47.0928 532.176 46.8011C532.517 46.5057 532.688 46.1269 532.688 45.6648C532.688 45.3201 532.602 45.0095 532.432 44.733C532.261 44.4527 532.019 44.233 531.705 44.0739C531.39 43.911 531.015 43.8295 530.58 43.8295H528.256V47.2386ZM528.256 42.3125H530.341C530.705 42.3125 531.032 42.2462 531.324 42.1136C531.616 41.9773 531.845 41.786 532.011 41.5398C532.182 41.2898 532.267 40.9943 532.267 40.6534C532.267 40.2027 532.108 39.8314 531.79 39.5398C531.475 39.2481 531.008 39.1023 530.386 39.1023H528.256V42.3125ZM540.436 49.1705C539.561 49.1705 538.805 48.9886 538.169 48.625C537.536 48.2576 537.05 47.7386 536.709 47.0682C536.368 46.3939 536.197 45.6004 536.197 44.6875C536.197 43.7898 536.368 43.0019 536.709 42.3239C537.054 41.642 537.535 41.1117 538.152 40.733C538.769 40.3504 539.495 40.1591 540.328 40.1591C540.866 40.1591 541.374 40.2462 541.851 40.4205C542.332 40.5909 542.756 40.8561 543.124 41.2159C543.495 41.5758 543.786 42.0341 543.999 42.5909C544.211 43.1439 544.317 43.803 544.317 44.5682V45.1989H537.163V43.8125H542.345C542.341 43.4186 542.256 43.0682 542.089 42.7614C541.923 42.4508 541.69 42.2064 541.391 42.0284C541.095 41.8504 540.75 41.7614 540.357 41.7614C539.936 41.7614 539.567 41.8636 539.249 42.0682C538.93 42.2689 538.682 42.5341 538.504 42.8636C538.33 43.1894 538.241 43.5473 538.237 43.9375V45.1477C538.237 45.6553 538.33 46.0909 538.516 46.4545C538.701 46.8144 538.961 47.0909 539.294 47.2841C539.627 47.4735 540.018 47.5682 540.464 47.5682C540.764 47.5682 541.035 47.5265 541.277 47.4432C541.519 47.3561 541.73 47.2292 541.908 47.0625C542.086 46.8958 542.22 46.6894 542.311 46.4432L544.232 46.6591C544.11 47.1667 543.879 47.6098 543.538 47.9886C543.201 48.3636 542.769 48.6553 542.243 48.8636C541.716 49.0682 541.114 49.1705 540.436 49.1705ZM546.057 49V40.2727H548.051V41.7273H548.142C548.301 41.2235 548.574 40.8352 548.96 40.5625C549.35 40.286 549.795 40.1477 550.295 40.1477C550.409 40.1477 550.536 40.1534 550.676 40.1648C550.82 40.1723 550.939 40.1856 551.034 40.2045V42.0966C550.947 42.0663 550.809 42.0398 550.619 42.017C550.434 41.9905 550.254 41.9773 550.08 41.9773C549.705 41.9773 549.367 42.0587 549.068 42.2216C548.773 42.3807 548.54 42.6023 548.369 42.8864C548.199 43.1705 548.114 43.4981 548.114 43.8693V49H546.057ZM554.756 49.1761C554.203 49.1761 553.705 49.0777 553.261 48.8807C552.822 48.6799 552.473 48.3845 552.216 47.9943C551.962 47.6042 551.835 47.1231 551.835 46.5511C551.835 46.0587 551.926 45.6515 552.108 45.3295C552.29 45.0076 552.538 44.75 552.852 44.5568C553.167 44.3636 553.521 44.2178 553.915 44.1193C554.313 44.017 554.723 43.9432 555.148 43.8977C555.659 43.8447 556.074 43.7973 556.392 43.7557C556.71 43.7102 556.941 43.642 557.085 43.5511C557.233 43.4564 557.307 43.3106 557.307 43.1136V43.0795C557.307 42.6515 557.18 42.3201 556.926 42.0852C556.672 41.8504 556.307 41.733 555.83 41.733C555.326 41.733 554.926 41.8428 554.631 42.0625C554.339 42.2822 554.142 42.5417 554.04 42.8409L552.119 42.5682C552.271 42.0379 552.521 41.5947 552.869 41.2386C553.218 40.8788 553.644 40.6098 554.148 40.4318C554.652 40.25 555.208 40.1591 555.818 40.1591C556.239 40.1591 556.657 40.2083 557.074 40.3068C557.491 40.4053 557.871 40.5682 558.216 40.7955C558.561 41.0189 558.837 41.3239 559.045 41.7102C559.258 42.0966 559.364 42.5795 559.364 43.1591V49H557.386V47.8011H557.318C557.193 48.0436 557.017 48.2708 556.79 48.483C556.566 48.6913 556.284 48.8598 555.943 48.9886C555.606 49.1136 555.21 49.1761 554.756 49.1761ZM555.29 47.6648C555.703 47.6648 556.061 47.5833 556.364 47.4205C556.667 47.2538 556.9 47.0341 557.062 46.7614C557.229 46.4886 557.312 46.1913 557.312 45.8693V44.8409C557.248 44.8939 557.138 44.9432 556.983 44.9886C556.831 45.0341 556.661 45.0739 556.472 45.108C556.282 45.142 556.095 45.1723 555.909 45.1989C555.723 45.2254 555.563 45.2481 555.426 45.267C555.119 45.3087 554.845 45.3769 554.602 45.4716C554.36 45.5663 554.169 45.6989 554.028 45.8693C553.888 46.036 553.818 46.2519 553.818 46.517C553.818 46.8958 553.956 47.1818 554.233 47.375C554.509 47.5682 554.862 47.6648 555.29 47.6648ZM563.489 43.8864V49H561.432V40.2727H563.398V41.7557H563.5C563.701 41.267 564.021 40.8788 564.46 40.5909C564.903 40.303 565.451 40.1591 566.102 40.1591C566.705 40.1591 567.229 40.2879 567.676 40.5455C568.127 40.803 568.475 41.1761 568.722 41.6648C568.972 42.1534 569.095 42.7462 569.091 43.4432V49H567.034V43.7614C567.034 43.178 566.883 42.7216 566.58 42.392C566.28 42.0625 565.866 41.8977 565.335 41.8977C564.975 41.8977 564.655 41.9773 564.375 42.1364C564.098 42.2917 563.881 42.517 563.722 42.8125C563.566 43.108 563.489 43.4659 563.489 43.8864ZM574.42 49.1534C573.735 49.1534 573.121 48.9773 572.58 48.625C572.038 48.2727 571.61 47.7614 571.295 47.0909C570.981 46.4205 570.824 45.6061 570.824 44.6477C570.824 43.678 570.983 42.8598 571.301 42.1932C571.623 41.5227 572.057 41.017 572.602 40.6761C573.148 40.3314 573.756 40.1591 574.426 40.1591C574.938 40.1591 575.358 40.2462 575.688 40.4205C576.017 40.5909 576.278 40.7973 576.472 41.0398C576.665 41.2784 576.814 41.5038 576.92 41.7159H577.006V37.3636H579.068V49H577.045V47.625H576.92C576.814 47.8371 576.661 48.0625 576.46 48.3011C576.259 48.536 575.994 48.7367 575.665 48.9034C575.335 49.0701 574.92 49.1534 574.42 49.1534ZM574.994 47.4659C575.43 47.4659 575.801 47.3485 576.108 47.1136C576.415 46.875 576.648 46.5436 576.807 46.1193C576.966 45.6951 577.045 45.2008 577.045 44.6364C577.045 44.072 576.966 43.5814 576.807 43.1648C576.652 42.7481 576.42 42.4242 576.114 42.1932C575.811 41.9621 575.438 41.8466 574.994 41.8466C574.536 41.8466 574.153 41.9659 573.847 42.2045C573.54 42.4432 573.309 42.7727 573.153 43.1932C572.998 43.6136 572.92 44.0947 572.92 44.6364C572.92 45.1818 572.998 45.6686 573.153 46.0966C573.313 46.5208 573.545 46.8561 573.852 47.1023C574.163 47.3447 574.544 47.4659 574.994 47.4659ZM583.771 49.1761C583.218 49.1761 582.72 49.0777 582.277 48.8807C581.838 48.6799 581.489 48.3845 581.232 47.9943C580.978 47.6042 580.851 47.1231 580.851 46.5511C580.851 46.0587 580.942 45.6515 581.124 45.3295C581.305 45.0076 581.554 44.75 581.868 44.5568C582.182 44.3636 582.536 44.2178 582.93 44.1193C583.328 44.017 583.739 43.9432 584.163 43.8977C584.675 43.8447 585.089 43.7973 585.408 43.7557C585.726 43.7102 585.957 43.642 586.101 43.5511C586.249 43.4564 586.322 43.3106 586.322 43.1136V43.0795C586.322 42.6515 586.196 42.3201 585.942 42.0852C585.688 41.8504 585.322 41.733 584.845 41.733C584.341 41.733 583.942 41.8428 583.646 42.0625C583.355 42.2822 583.158 42.5417 583.055 42.8409L581.135 42.5682C581.286 42.0379 581.536 41.5947 581.885 41.2386C582.233 40.8788 582.66 40.6098 583.163 40.4318C583.667 40.25 584.224 40.1591 584.834 40.1591C585.254 40.1591 585.673 40.2083 586.089 40.3068C586.506 40.4053 586.887 40.5682 587.232 40.7955C587.576 41.0189 587.853 41.3239 588.061 41.7102C588.273 42.0966 588.379 42.5795 588.379 43.1591V49H586.402V47.8011H586.334C586.209 48.0436 586.033 48.2708 585.805 48.483C585.582 48.6913 585.3 48.8598 584.959 48.9886C584.622 49.1136 584.226 49.1761 583.771 49.1761ZM584.305 47.6648C584.718 47.6648 585.076 47.5833 585.379 47.4205C585.682 47.2538 585.915 47.0341 586.078 46.7614C586.245 46.4886 586.328 46.1913 586.328 45.8693V44.8409C586.264 44.8939 586.154 44.9432 585.999 44.9886C585.847 45.0341 585.677 45.0739 585.487 45.108C585.298 45.142 585.11 45.1723 584.925 45.1989C584.739 45.2254 584.578 45.2481 584.442 45.267C584.135 45.3087 583.86 45.3769 583.618 45.4716C583.375 45.5663 583.184 45.6989 583.044 45.8693C582.904 46.036 582.834 46.2519 582.834 46.517C582.834 46.8958 582.972 47.1818 583.249 47.375C583.525 47.5682 583.877 47.6648 584.305 47.6648Z" fill="black"/>
<path d="M717.636 39.1307V37.3636H726.92V39.1307H723.324V49H721.233V39.1307H717.636ZM731.217 49.1705C730.342 49.1705 729.587 48.9886 728.95 48.625C728.318 48.2576 727.831 47.7386 727.49 47.0682C727.149 46.3939 726.979 45.6004 726.979 44.6875C726.979 43.7898 727.149 43.0019 727.49 42.3239C727.835 41.642 728.316 41.1117 728.933 40.733C729.551 40.3504 730.276 40.1591 731.109 40.1591C731.647 40.1591 732.155 40.2462 732.632 40.4205C733.113 40.5909 733.537 40.8561 733.905 41.2159C734.276 41.5758 734.568 42.0341 734.78 42.5909C734.992 43.1439 735.098 43.803 735.098 44.5682V45.1989H727.945V43.8125H733.126C733.123 43.4186 733.037 43.0682 732.871 42.7614C732.704 42.4508 732.471 42.2064 732.172 42.0284C731.876 41.8504 731.532 41.7614 731.138 41.7614C730.717 41.7614 730.348 41.8636 730.03 42.0682C729.712 42.2689 729.464 42.5341 729.286 42.8636C729.111 43.1894 729.022 43.5473 729.018 43.9375V45.1477C729.018 45.6553 729.111 46.0909 729.297 46.4545C729.482 46.8144 729.742 47.0909 730.075 47.2841C730.409 47.4735 730.799 47.5682 731.246 47.5682C731.545 47.5682 731.816 47.5265 732.058 47.4432C732.301 47.3561 732.511 47.2292 732.689 47.0625C732.867 46.8958 733.001 46.6894 733.092 46.4432L735.013 46.6591C734.892 47.1667 734.661 47.6098 734.32 47.9886C733.982 48.3636 733.551 48.6553 733.024 48.8636C732.498 49.0682 731.895 49.1705 731.217 49.1705ZM738.895 43.8864V49H736.838V40.2727H738.804V41.7557H738.906C739.107 41.267 739.427 40.8788 739.866 40.5909C740.31 40.303 740.857 40.1591 741.509 40.1591C742.111 40.1591 742.635 40.2879 743.082 40.5455C743.533 40.803 743.882 41.1761 744.128 41.6648C744.378 42.1534 744.501 42.7462 744.497 43.4432V49H742.44V43.7614C742.44 43.178 742.289 42.7216 741.986 42.392C741.687 42.0625 741.272 41.8977 740.741 41.8977C740.382 41.8977 740.062 41.9773 739.781 42.1364C739.505 42.2917 739.287 42.517 739.128 42.8125C738.973 43.108 738.895 43.4659 738.895 43.8864ZM750.946 40.2727V41.8636H745.929V40.2727H750.946ZM747.168 38.1818H749.224V46.375C749.224 46.6515 749.266 46.8636 749.349 47.0114C749.437 47.1553 749.55 47.2538 749.69 47.3068C749.83 47.3598 749.986 47.3864 750.156 47.3864C750.285 47.3864 750.402 47.3769 750.509 47.358C750.618 47.339 750.702 47.322 750.759 47.3068L751.105 48.9148C750.995 48.9527 750.838 48.9943 750.634 49.0398C750.433 49.0852 750.187 49.1117 749.895 49.1193C749.38 49.1345 748.916 49.0568 748.503 48.8864C748.09 48.7121 747.762 48.4432 747.52 48.0795C747.281 47.7159 747.164 47.2614 747.168 46.7159V38.1818ZM755.178 49.1761C754.625 49.1761 754.126 49.0777 753.683 48.8807C753.244 48.6799 752.895 48.3845 752.638 47.9943C752.384 47.6042 752.257 47.1231 752.257 46.5511C752.257 46.0587 752.348 45.6515 752.53 45.3295C752.712 45.0076 752.96 44.75 753.274 44.5568C753.589 44.3636 753.943 44.2178 754.337 44.1193C754.734 44.017 755.145 43.9432 755.57 43.8977C756.081 43.8447 756.496 43.7973 756.814 43.7557C757.132 43.7102 757.363 43.642 757.507 43.5511C757.655 43.4564 757.729 43.3106 757.729 43.1136V43.0795C757.729 42.6515 757.602 42.3201 757.348 42.0852C757.094 41.8504 756.729 41.733 756.251 41.733C755.748 41.733 755.348 41.8428 755.053 42.0625C754.761 42.2822 754.564 42.5417 754.462 42.8409L752.541 42.5682C752.693 42.0379 752.943 41.5947 753.291 41.2386C753.64 40.8788 754.066 40.6098 754.57 40.4318C755.073 40.25 755.63 40.1591 756.24 40.1591C756.661 40.1591 757.079 40.2083 757.496 40.3068C757.912 40.4053 758.293 40.5682 758.638 40.7955C758.982 41.0189 759.259 41.3239 759.467 41.7102C759.679 42.0966 759.786 42.5795 759.786 43.1591V49H757.808V47.8011H757.74C757.615 48.0436 757.439 48.2708 757.212 48.483C756.988 48.6913 756.706 48.8598 756.365 48.9886C756.028 49.1136 755.632 49.1761 755.178 49.1761ZM755.712 47.6648C756.125 47.6648 756.482 47.5833 756.786 47.4205C757.089 47.2538 757.321 47.0341 757.484 46.7614C757.651 46.4886 757.734 46.1913 757.734 45.8693V44.8409C757.67 44.8939 757.56 44.9432 757.405 44.9886C757.253 45.0341 757.083 45.0739 756.893 45.108C756.704 45.142 756.517 45.1723 756.331 45.1989C756.145 45.2254 755.984 45.2481 755.848 45.267C755.541 45.3087 755.267 45.3769 755.024 45.4716C754.782 45.5663 754.59 45.6989 754.45 45.8693C754.31 46.036 754.24 46.2519 754.24 46.517C754.24 46.8958 754.378 47.1818 754.655 47.375C754.931 47.5682 755.284 47.6648 755.712 47.6648ZM763.911 43.8864V49H761.854V40.2727H763.82V41.7557H763.922C764.123 41.267 764.443 40.8788 764.882 40.5909C765.325 40.303 765.873 40.1591 766.524 40.1591C767.126 40.1591 767.651 40.2879 768.098 40.5455C768.549 40.803 768.897 41.1761 769.143 41.6648C769.393 42.1534 769.517 42.7462 769.513 43.4432V49H767.456V43.7614C767.456 43.178 767.304 42.7216 767.001 42.392C766.702 42.0625 766.287 41.8977 765.757 41.8977C765.397 41.8977 765.077 41.9773 764.797 42.1364C764.52 42.2917 764.303 42.517 764.143 42.8125C763.988 43.108 763.911 43.4659 763.911 43.8864ZM775.399 52.4545C774.661 52.4545 774.026 52.3542 773.496 52.1534C772.965 51.9564 772.539 51.6913 772.217 51.358C771.895 51.0246 771.672 50.6553 771.547 50.25L773.399 49.8011C773.482 49.9716 773.604 50.1402 773.763 50.3068C773.922 50.4773 774.136 50.6174 774.405 50.7273C774.678 50.8409 775.02 50.8977 775.433 50.8977C776.017 50.8977 776.5 50.7557 776.882 50.4716C777.265 50.1913 777.456 49.7292 777.456 49.0852V47.4318H777.354C777.248 47.6439 777.092 47.8617 776.888 48.0852C776.687 48.3087 776.42 48.4962 776.087 48.6477C775.757 48.7992 775.342 48.875 774.842 48.875C774.172 48.875 773.564 48.7178 773.018 48.4034C772.477 48.0852 772.045 47.6117 771.723 46.983C771.405 46.3504 771.246 45.5587 771.246 44.608C771.246 43.6496 771.405 42.8409 771.723 42.1818C772.045 41.5189 772.479 41.017 773.024 40.6761C773.57 40.3314 774.178 40.1591 774.848 40.1591C775.359 40.1591 775.78 40.2462 776.109 40.4205C776.443 40.5909 776.708 40.7973 776.905 41.0398C777.102 41.2784 777.251 41.5038 777.354 41.7159H777.467V40.2727H779.496V49.142C779.496 49.8883 779.318 50.5057 778.962 50.9943C778.606 51.483 778.119 51.8485 777.501 52.0909C776.884 52.3333 776.183 52.4545 775.399 52.4545ZM775.416 47.2614C775.852 47.2614 776.223 47.1553 776.53 46.9432C776.837 46.7311 777.07 46.4261 777.229 46.0284C777.388 45.6307 777.467 45.1534 777.467 44.5966C777.467 44.0473 777.388 43.5663 777.229 43.1534C777.073 42.7405 776.842 42.4205 776.536 42.1932C776.232 41.9621 775.859 41.8466 775.416 41.8466C774.958 41.8466 774.575 41.9659 774.268 42.2045C773.962 42.4432 773.731 42.7708 773.575 43.1875C773.42 43.6004 773.342 44.0701 773.342 44.5966C773.342 45.1307 773.42 45.5985 773.575 46C773.734 46.3977 773.967 46.7083 774.274 46.9318C774.585 47.1515 774.965 47.2614 775.416 47.2614Z" fill="black"/>
<path d="M629.148 49V37.3636H633.511C634.405 37.3636 635.155 37.5303 635.761 37.8636C636.371 38.197 636.831 38.6553 637.142 39.2386C637.456 39.8182 637.614 40.4773 637.614 41.2159C637.614 41.9621 637.456 42.625 637.142 43.2045C636.828 43.7841 636.364 44.2405 635.75 44.5739C635.136 44.9034 634.381 45.0682 633.483 45.0682H630.591V43.3352H633.199C633.722 43.3352 634.15 43.2443 634.483 43.0625C634.816 42.8807 635.063 42.6307 635.222 42.3125C635.384 41.9943 635.466 41.6288 635.466 41.2159C635.466 40.803 635.384 40.4394 635.222 40.125C635.063 39.8106 634.814 39.5663 634.477 39.392C634.144 39.214 633.714 39.125 633.188 39.125H631.256V49H629.148ZM639.354 49V40.2727H641.348V41.7273H641.439C641.598 41.2235 641.871 40.8352 642.257 40.5625C642.647 40.286 643.092 40.1477 643.592 40.1477C643.706 40.1477 643.833 40.1534 643.973 40.1648C644.117 40.1723 644.236 40.1856 644.331 40.2045V42.0966C644.244 42.0663 644.106 42.0398 643.916 42.017C643.731 41.9905 643.551 41.9773 643.376 41.9773C643.001 41.9773 642.664 42.0587 642.365 42.2216C642.07 42.3807 641.837 42.6023 641.666 42.8864C641.496 43.1705 641.411 43.4981 641.411 43.8693V49H639.354ZM649.145 49.1705C648.293 49.1705 647.554 48.983 646.929 48.608C646.304 48.233 645.819 47.7083 645.474 47.0341C645.134 46.3598 644.963 45.572 644.963 44.6705C644.963 43.7689 645.134 42.9792 645.474 42.3011C645.819 41.6231 646.304 41.0966 646.929 40.7216C647.554 40.3466 648.293 40.1591 649.145 40.1591C649.997 40.1591 650.736 40.3466 651.361 40.7216C651.986 41.0966 652.469 41.6231 652.81 42.3011C653.154 42.9792 653.327 43.7689 653.327 44.6705C653.327 45.572 653.154 46.3598 652.81 47.0341C652.469 47.7083 651.986 48.233 651.361 48.608C650.736 48.983 649.997 49.1705 649.145 49.1705ZM649.156 47.5227C649.618 47.5227 650.005 47.3958 650.315 47.142C650.626 46.8845 650.857 46.5398 651.009 46.108C651.164 45.6761 651.241 45.1951 651.241 44.6648C651.241 44.1307 651.164 43.6477 651.009 43.2159C650.857 42.7803 650.626 42.4337 650.315 42.1761C650.005 41.9186 649.618 41.7898 649.156 41.7898C648.683 41.7898 648.289 41.9186 647.974 42.1761C647.664 42.4337 647.431 42.7803 647.276 43.2159C647.124 43.6477 647.048 44.1307 647.048 44.6648C647.048 45.1951 647.124 45.6761 647.276 46.108C647.431 46.5398 647.664 46.8845 647.974 47.142C648.289 47.3958 648.683 47.5227 649.156 47.5227ZM659.493 40.2727V41.8636H654.334V40.2727H659.493ZM655.624 49V39.4489C655.624 38.8617 655.745 38.3731 655.987 37.983C656.233 37.5928 656.563 37.3011 656.976 37.108C657.389 36.9148 657.847 36.8182 658.351 36.8182C658.707 36.8182 659.023 36.8466 659.3 36.9034C659.576 36.9602 659.781 37.0114 659.913 37.0568L659.504 38.6477C659.417 38.6212 659.307 38.5947 659.175 38.5682C659.042 38.5379 658.894 38.5227 658.732 38.5227C658.349 38.5227 658.078 38.6155 657.919 38.8011C657.764 38.983 657.686 39.2443 657.686 39.5852V49H655.624ZM661.104 49V40.2727H663.161V49H661.104ZM662.138 39.0341C661.812 39.0341 661.532 38.9261 661.297 38.7102C661.062 38.4905 660.945 38.2273 660.945 37.9205C660.945 37.6098 661.062 37.3466 661.297 37.1307C661.532 36.911 661.812 36.8011 662.138 36.8011C662.467 36.8011 662.748 36.911 662.979 37.1307C663.214 37.3466 663.331 37.6098 663.331 37.9205C663.331 38.2273 663.214 38.4905 662.979 38.7102C662.748 38.9261 662.467 39.0341 662.138 39.0341ZM667.332 37.3636V49H665.276V37.3636H667.332ZM673.311 49.1705C672.436 49.1705 671.68 48.9886 671.044 48.625C670.411 48.2576 669.925 47.7386 669.584 47.0682C669.243 46.3939 669.072 45.6004 669.072 44.6875C669.072 43.7898 669.243 43.0019 669.584 42.3239C669.929 41.642 670.41 41.1117 671.027 40.733C671.644 40.3504 672.37 40.1591 673.203 40.1591C673.741 40.1591 674.249 40.2462 674.726 40.4205C675.207 40.5909 675.631 40.8561 675.999 41.2159C676.37 41.5758 676.661 42.0341 676.874 42.5909C677.086 43.1439 677.192 43.803 677.192 44.5682V45.1989H670.038V43.8125H675.22C675.216 43.4186 675.131 43.0682 674.964 42.7614C674.798 42.4508 674.565 42.2064 674.266 42.0284C673.97 41.8504 673.625 41.7614 673.232 41.7614C672.811 41.7614 672.442 41.8636 672.124 42.0682C671.805 42.2689 671.557 42.5341 671.379 42.8636C671.205 43.1894 671.116 43.5473 671.112 43.9375V45.1477C671.112 45.6553 671.205 46.0909 671.391 46.4545C671.576 46.8144 671.836 47.0909 672.169 47.2841C672.502 47.4735 672.893 47.5682 673.339 47.5682C673.639 47.5682 673.91 47.5265 674.152 47.4432C674.394 47.3561 674.605 47.2292 674.783 47.0625C674.961 46.8958 675.095 46.6894 675.186 46.4432L677.107 46.6591C676.985 47.1667 676.754 47.6098 676.413 47.9886C676.076 48.3636 675.644 48.6553 675.118 48.8636C674.591 49.0682 673.989 49.1705 673.311 49.1705Z" fill="black"/>
<path d="M821.148 49V37.3636H823.256V42.7102H823.398L827.938 37.3636H830.511L826.011 42.5852L830.551 49H828.017L824.545 44.0114L823.256 45.5341V49H821.148ZM835.051 49.1705C834.199 49.1705 833.46 48.983 832.835 48.608C832.21 48.233 831.725 47.7083 831.381 47.0341C831.04 46.3598 830.869 45.572 830.869 44.6705C830.869 43.7689 831.04 42.9792 831.381 42.3011C831.725 41.6231 832.21 41.0966 832.835 40.7216C833.46 40.3466 834.199 40.1591 835.051 40.1591C835.903 40.1591 836.642 40.3466 837.267 40.7216C837.892 41.0966 838.375 41.6231 838.716 42.3011C839.061 42.9792 839.233 43.7689 839.233 44.6705C839.233 45.572 839.061 46.3598 838.716 47.0341C838.375 47.7083 837.892 48.233 837.267 48.608C836.642 48.983 835.903 49.1705 835.051 49.1705ZM835.062 47.5227C835.525 47.5227 835.911 47.3958 836.222 47.142C836.532 46.8845 836.763 46.5398 836.915 46.108C837.07 45.6761 837.148 45.1951 837.148 44.6648C837.148 44.1307 837.07 43.6477 836.915 43.2159C836.763 42.7803 836.532 42.4337 836.222 42.1761C835.911 41.9186 835.525 41.7898 835.062 41.7898C834.589 41.7898 834.195 41.9186 833.881 42.1761C833.57 42.4337 833.337 42.7803 833.182 43.2159C833.03 43.6477 832.955 44.1307 832.955 44.6648C832.955 45.1951 833.03 45.6761 833.182 46.108C833.337 46.5398 833.57 46.8845 833.881 47.142C834.195 47.3958 834.589 47.5227 835.062 47.5227ZM843.036 43.8864V49H840.979V40.2727H842.945V41.7557H843.047C843.248 41.267 843.568 40.8788 844.007 40.5909C844.45 40.303 844.998 40.1591 845.649 40.1591C846.251 40.1591 846.776 40.2879 847.223 40.5455C847.674 40.803 848.022 41.1761 848.268 41.6648C848.518 42.1534 848.642 42.7462 848.638 43.4432V49H846.581V43.7614C846.581 43.178 846.429 42.7216 846.126 42.392C845.827 42.0625 845.412 41.8977 844.882 41.8977C844.522 41.8977 844.202 41.9773 843.922 42.1364C843.645 42.2917 843.428 42.517 843.268 42.8125C843.113 43.108 843.036 43.4659 843.036 43.8864ZM855.087 40.2727V41.8636H850.07V40.2727H855.087ZM851.308 38.1818H853.365V46.375C853.365 46.6515 853.407 46.8636 853.49 47.0114C853.577 47.1553 853.691 47.2538 853.831 47.3068C853.971 47.3598 854.126 47.3864 854.297 47.3864C854.426 47.3864 854.543 47.3769 854.649 47.358C854.759 47.339 854.842 47.322 854.899 47.3068L855.246 48.9148C855.136 48.9527 854.979 48.9943 854.774 49.0398C854.573 49.0852 854.327 49.1117 854.036 49.1193C853.52 49.1345 853.056 49.0568 852.643 48.8864C852.231 48.7121 851.903 48.4432 851.661 48.0795C851.422 47.7159 851.304 47.2614 851.308 46.7159V38.1818ZM859.318 49.1761C858.765 49.1761 858.267 49.0777 857.824 48.8807C857.384 48.6799 857.036 48.3845 856.778 47.9943C856.525 47.6042 856.398 47.1231 856.398 46.5511C856.398 46.0587 856.489 45.6515 856.67 45.3295C856.852 45.0076 857.1 44.75 857.415 44.5568C857.729 44.3636 858.083 44.2178 858.477 44.1193C858.875 44.017 859.286 43.9432 859.71 43.8977C860.222 43.8447 860.636 43.7973 860.955 43.7557C861.273 43.7102 861.504 43.642 861.648 43.5511C861.795 43.4564 861.869 43.3106 861.869 43.1136V43.0795C861.869 42.6515 861.742 42.3201 861.489 42.0852C861.235 41.8504 860.869 41.733 860.392 41.733C859.888 41.733 859.489 41.8428 859.193 42.0625C858.902 42.2822 858.705 42.5417 858.602 42.8409L856.682 42.5682C856.833 42.0379 857.083 41.5947 857.432 41.2386C857.78 40.8788 858.206 40.6098 858.71 40.4318C859.214 40.25 859.771 40.1591 860.381 40.1591C860.801 40.1591 861.22 40.2083 861.636 40.3068C862.053 40.4053 862.434 40.5682 862.778 40.7955C863.123 41.0189 863.4 41.3239 863.608 41.7102C863.82 42.0966 863.926 42.5795 863.926 43.1591V49H861.949V47.8011H861.881C861.756 48.0436 861.58 48.2708 861.352 48.483C861.129 48.6913 860.847 48.8598 860.506 48.9886C860.169 49.1136 859.773 49.1761 859.318 49.1761ZM859.852 47.6648C860.265 47.6648 860.623 47.5833 860.926 47.4205C861.229 47.2538 861.462 47.0341 861.625 46.7614C861.792 46.4886 861.875 46.1913 861.875 45.8693V44.8409C861.811 44.8939 861.701 44.9432 861.545 44.9886C861.394 45.0341 861.223 45.0739 861.034 45.108C860.845 45.142 860.657 45.1723 860.472 45.1989C860.286 45.2254 860.125 45.2481 859.989 45.267C859.682 45.3087 859.407 45.3769 859.165 45.4716C858.922 45.5663 858.731 45.6989 858.591 45.8693C858.451 46.036 858.381 46.2519 858.381 46.517C858.381 46.8958 858.519 47.1818 858.795 47.375C859.072 47.5682 859.424 47.6648 859.852 47.6648ZM867.869 46.2614L867.864 43.7784H868.193L871.33 40.2727H873.733L869.875 44.5682H869.449L867.869 46.2614ZM865.994 49V37.3636H868.051V49H865.994ZM871.472 49L868.631 45.0284L870.017 43.5795L873.932 49H871.472ZM879.163 49V37.3636H881.271V42.7102H881.413L885.953 37.3636H888.527L884.027 42.5852L888.567 49H886.033L882.561 44.0114L881.271 45.5341V49H879.163ZM892.412 49.1761C891.859 49.1761 891.361 49.0777 890.918 48.8807C890.478 48.6799 890.13 48.3845 889.872 47.9943C889.618 47.6042 889.491 47.1231 889.491 46.5511C889.491 46.0587 889.582 45.6515 889.764 45.3295C889.946 45.0076 890.194 44.75 890.509 44.5568C890.823 44.3636 891.177 44.2178 891.571 44.1193C891.969 44.017 892.38 43.9432 892.804 43.8977C893.315 43.8447 893.73 43.7973 894.048 43.7557C894.366 43.7102 894.598 43.642 894.741 43.5511C894.889 43.4564 894.963 43.3106 894.963 43.1136V43.0795C894.963 42.6515 894.836 42.3201 894.582 42.0852C894.329 41.8504 893.963 41.733 893.486 41.733C892.982 41.733 892.582 41.8428 892.287 42.0625C891.995 42.2822 891.798 42.5417 891.696 42.8409L889.776 42.5682C889.927 42.0379 890.177 41.5947 890.526 41.2386C890.874 40.8788 891.3 40.6098 891.804 40.4318C892.308 40.25 892.865 40.1591 893.474 40.1591C893.895 40.1591 894.313 40.2083 894.73 40.3068C895.147 40.4053 895.527 40.5682 895.872 40.7955C896.217 41.0189 896.493 41.3239 896.702 41.7102C896.914 42.0966 897.02 42.5795 897.02 43.1591V49H895.043V47.8011H894.974C894.849 48.0436 894.673 48.2708 894.446 48.483C894.223 48.6913 893.94 48.8598 893.599 48.9886C893.262 49.1136 892.866 49.1761 892.412 49.1761ZM892.946 47.6648C893.359 47.6648 893.717 47.5833 894.02 47.4205C894.323 47.2538 894.556 47.0341 894.719 46.7614C894.885 46.4886 894.969 46.1913 894.969 45.8693V44.8409C894.904 44.8939 894.795 44.9432 894.639 44.9886C894.488 45.0341 894.317 45.0739 894.128 45.108C893.938 45.142 893.751 45.1723 893.565 45.1989C893.38 45.2254 893.219 45.2481 893.082 45.267C892.776 45.3087 892.501 45.3769 892.259 45.4716C892.016 45.5663 891.825 45.6989 891.685 45.8693C891.545 46.036 891.474 46.2519 891.474 46.517C891.474 46.8958 891.613 47.1818 891.889 47.375C892.166 47.5682 892.518 47.6648 892.946 47.6648ZM899.088 49V40.2727H901.054V41.7557H901.156C901.338 41.2557 901.639 40.8655 902.06 40.5852C902.48 40.3011 902.982 40.1591 903.565 40.1591C904.156 40.1591 904.654 40.303 905.06 40.5909C905.469 40.875 905.757 41.2633 905.923 41.7557H906.014C906.207 41.2708 906.533 40.8845 906.991 40.5966C907.454 40.3049 908.001 40.1591 908.634 40.1591C909.437 40.1591 910.092 40.4129 910.599 40.9205C911.107 41.428 911.361 42.1686 911.361 43.142V49H909.298V43.4602C909.298 42.9186 909.154 42.5227 908.866 42.2727C908.579 42.0189 908.226 41.892 907.81 41.892C907.313 41.892 906.925 42.0473 906.645 42.358C906.368 42.6648 906.23 43.0644 906.23 43.5568V49H904.213V43.375C904.213 42.9242 904.077 42.5644 903.804 42.2955C903.535 42.0265 903.183 41.892 902.747 41.892C902.452 41.892 902.183 41.9678 901.94 42.1193C901.698 42.267 901.505 42.4773 901.361 42.75C901.217 43.0189 901.145 43.3333 901.145 43.6932V49H899.088ZM913.447 49V40.2727H915.504V49H913.447ZM914.482 39.0341C914.156 39.0341 913.875 38.9261 913.641 38.7102C913.406 38.4905 913.288 38.2273 913.288 37.9205C913.288 37.6098 913.406 37.3466 913.641 37.1307C913.875 36.911 914.156 36.8011 914.482 36.8011C914.811 36.8011 915.091 36.911 915.322 37.1307C915.557 37.3466 915.675 37.6098 915.675 37.9205C915.675 38.2273 915.557 38.4905 915.322 38.7102C915.091 38.9261 914.811 39.0341 914.482 39.0341Z" fill="black"/>
<defs>
<filter id="filter0_d_19_58" x="-5" y="-4" width="1450" height="100" filterUnits="userSpaceOnUse" color-interpolation-filters="sRGB">
<feFlood flood-opacity="0" result="BackgroundImageFix"/>
<feColorMatrix in="SourceAlpha" type="matrix" values="0 0 0 0 0 0 0 0 0 0 0 0 0 0 0 0 0 0 127 0" result="hardAlpha"/>
<feOffset dy="1"/>
<feGaussianBlur stdDeviation="2.5"/>
<feComposite in2="hardAlpha" operator="out"/>
<feColorMatrix type="matrix" values="0 0 0 0 0 0 0 0 0 0 0 0 0 0 0 0 0 0 0.25 0"/>
<feBlend mode="normal" in2="BackgroundImageFix" result="effect1_dropShadow_19_58"/>
<feBlend mode="normal" in="SourceGraphic" in2="effect1_dropShadow_19_58" result="shape"/>
</filter>
<clipPath id="clip0_19_58">
<rect width="20" height="20" fill="white" transform="translate(81 35)"/>
</clipPath>
</defs>
</svg>
